<svg xmlns="http://www.w3.org/2000/svg" width="213" height="78">
  <rect width="100%" height="100%" fill="white"></rect>
  <path transform="translate(-1.52588e-05 3.43323e-05)" d="M17.742968 10.392224C17.776911 10.111741 17.797277 9.8219652 17.797277 9.5262756C17.797277 9.3649139 17.798126 9.1773624 17.778608 8.9644651C20.286163 8.9289827 22.485685 7.1303449 22.485685 5.0613623C22.485685 4.0095515 21.796637 3.2145689 21.407139 2.7397759C21.494543 2.7211897 21.582794 2.7009139 21.671896 2.6797931C22.039331 2.9982932 23.081388 4.1286726 23.081388 5.5555863C23.081388 8.0368452 20.589956 10.34069 17.742968 10.392224M15.216744 1.7487931C15.170073 1.4725345 15.064 1.2216207 14.90277 1.0061897C14.912104 0.75358623 15.016479 0.51112068 15.425495 0.7105C15.204016 0.93606895 15.37458 1.3356724 15.37458 1.3356724C15.37458 1.3356724 15.827723 1.1261551 15.73353 0.82877588C16.405605 0.98844826 15.921915 1.8873448 15.216744 1.7487931M14.63377 3.023638C14.544669 2.6527586 14.35289 2.2717414 14.110195 1.9845001C13.888716 1.7242931 13.522978 1.4150862 13.029104 1.4150862C12.804231 1.4150862 12.426612 1.5198448 12.186463 1.6212242C12.096514 1.4581724 11.921706 1.0661724 11.921706 0.88960344C11.921706 0.70796549 12.23059 0.5237931 12.820354 0.5237931C14.118681 0.5237931 14.894284 1.107569 14.894284 2.087569C14.894284 2.4322586 14.756814 2.7448449 14.63377 3.023638M17.968691 19.685328C18.119738 19.685328 18.192717 19.708982 18.280119 19.741932C18.654345 20.754034 20.095234 22.665035 20.155483 22.746138L20.168211 22.76388L20.189426 22.75881C20.543283 22.702208 21.445326 22.567034 22.200562 22.567034L22.217533 22.567034C22.299845 22.567034 22.393188 22.567034 22.451742 22.624483C22.500959 22.673483 22.524719 22.75881 22.524719 22.880466C22.524719 23.067173 22.445801 23.386517 22.349911 23.522535C22.086002 23.236137 21.656622 23.10688 20.969271 23.10688C20.763065 23.10688 20.518675 23.168552 20.387146 23.20319L20.332836 23.215017L20.270889 23.23107L20.667177 23.625603C21.279003 24.234724 21.807669 24.759361 21.807669 25.109121C21.807669 25.319483 21.601463 25.594051 21.41223 25.715708C21.370649 25.075327 20.721485 24.217827 20.088446 23.737965L20.034985 23.698259L20.024801 23.923828C20.015467 24.076742 20.00189 24.305689 20.00189 24.551535C20.00189 25.77062 19.877148 25.955637 19.452858 25.955637C19.387518 25.955637 19.288233 25.937052 19.227135 25.914242C19.465588 25.620241 19.560627 25.231621 19.560627 24.549845L19.556385 24.235569L19.55299 23.982965C19.55299 23.703327 19.581842 23.496346 19.603905 23.329914L19.616634 23.236137L19.550446 23.226845C19.351028 23.19981 18.982744 23.149965 18.701015 23.149965C18.095129 23.149965 17.685265 23.20488 17.388262 23.482828C17.19224 23.324844 16.990278 23.052811 16.990278 22.88131C16.990278 22.627018 17.148962 22.606741 17.357714 22.606741C17.463785 22.606741 17.562222 22.621948 17.697994 22.638C17.958508 22.676863 18.349703 22.735155 19.155855 22.735155L19.20677 22.735155L19.190647 22.686155C18.986139 22.103224 18.425226 21.256706 17.525732 20.167725C17.606346 19.876259 17.685265 19.685328 17.968691 19.685328M10.199088 22.686155L10.182965 22.735155L10.233031 22.735155C11.038335 22.735155 11.431227 22.676863 11.691741 22.638C11.827515 22.621948 11.925949 22.606741 12.031174 22.606741C12.239076 22.606741 12.398609 22.627018 12.398609 22.88131C12.398609 23.052811 12.197495 23.324844 12.002322 23.482828C11.70447 23.20488 11.293757 23.149965 10.689568 23.149965C10.406991 23.149965 10.037009 23.19981 9.8392906 23.226845L9.8078928 23.23107L9.7722521 23.236137L9.784133 23.329914C9.8078928 23.496346 9.8367443 23.703327 9.8367443 23.982965L9.8333502 24.235569L9.8291073 24.549845C9.8291073 25.231621 9.9232998 25.620241 10.164296 25.914242C10.100653 25.937052 10.001369 25.955637 9.9360285 25.955637C9.51089 25.955637 9.387845 25.77062 9.387845 24.551535C9.387845 24.305689 9.3751163 24.076742 9.3657827 23.923828L9.3539019 23.697414L9.3004417 23.737965C8.6690979 24.217827 8.0173883 25.075327 7.9783535 25.715708C7.7882714 25.594051 7.5820661 25.319483 7.5820661 25.109121C7.5820661 24.759361 8.1107321 24.234724 8.7217102 23.625603L9.1179972 23.23107L9.0025902 23.20319C8.8702116 23.168552 8.6266689 23.10688 8.418767 23.10688C7.7331138 23.10688 7.3045802 23.236137 7.0398235 23.522535C6.943934 23.386517 6.8641672 23.067173 6.8641672 22.880466C6.8641672 22.75881 6.8887758 22.673483 6.9371452 22.624483C6.9965458 22.567034 7.0898895 22.567034 7.1713533 22.567034L7.1891737 22.567034C7.9444103 22.567034 8.8481483 22.702208 9.2003088 22.75881L9.2215233 22.76388L9.234252 22.746138C9.2953501 22.665035 10.735392 20.754034 11.110464 19.741932C11.196171 19.708982 11.269997 19.685328 11.421044 19.685328C11.70447 19.685328 11.783388 19.876259 11.865701 20.167725C10.964508 21.256706 10.402748 22.103224 10.199088 22.686155M6.3083472 5.5555863C6.3083472 4.1286726 7.3512526 2.9982932 7.7186875 2.6797931C7.8069401 2.7009139 7.8951926 2.7211897 7.9834447 2.7397759C7.5930977 3.2145689 6.9032021 4.0095515 6.9032021 5.0613623C6.9032021 7.1514654 9.1459999 8.9653101 11.684953 8.9653101C11.66883 9.1444139 11.660344 9.3328104 11.660344 9.5262756C11.660344 9.8346376 11.678164 10.12188 11.707865 10.392224C8.8362684 10.374483 6.3083472 8.0545864 6.3083472 5.5555863M25.568577 9.9562931C26.857571 11.984724 27.865685 11.950931 29.388039 11.950931C28.128744 10.989517 27.295439 9.7586031 26.897453 9.1292067L24.54434 5.3807068C24.315224 4.2232933 23.71443 3.1410689 22.813236 2.3351035C23.11618 2.2218966 23.368208 2.1010861 23.519255 1.9870344C21.982477 1.9870344 20.460123 1.2106379 19.621725 1.2106379C19.082876 1.2106379 18.737505 1.5308276 18.737505 1.954931C18.771448 2.4271896 19.259382 2.9070518 20.161423 2.9070518C20.365931 2.9070518 20.627293 2.880862 20.914114 2.8327069C21.402048 3.5102587 21.796637 4.1236033 21.796637 4.9980001C21.796637 6.6386552 19.825384 7.9177241 17.836313 7.9177241C17.722603 7.9177241 17.615681 7.9126554 17.503668 7.9050517C17.323771 7.4986897 16.723824 6.8152242 16.723824 6.0388274C16.723824 4.7344136 17.578344 3.6699309 17.578344 2.3781896C17.578344 1.5747586 17.185452 1.0779999 17.034403 0.87101722C17.278795 0.64544827 17.54525 0.36834481 17.608892 0.17825863C17.466331 0.23993103 17.297464 0.24668966 17.052223 0.24668966C16.098419 0.24668966 15.32112 0 14.563337 0C14.130562 0 14.014306 0.13348275 14.014306 0.25936207C14.014306 0.30582759 14.021094 0.35398275 14.033823 0.37594828C13.872593 0.31343102 13.721546 0.2720345 13.541647 0.23993103C13.317621 0.19684483 13.077474 0.17572413 12.820354 0.17572413C11.899644 0.17572413 11.572091 0.5601207 11.572091 0.88960344C11.572091 1.1675518 11.792723 1.6761379 12.043054 2.0647585C12.401155 1.8848103 12.833082 1.7631552 13.029104 1.7631552C13.518735 1.7631552 13.953208 2.2261207 14.183173 2.7752585C13.854773 2.8149655 13.791978 2.8293276 13.459334 2.8293276C12.562385 2.8293276 11.952255 2.5099828 11.826666 2.5099828C11.814786 2.5099828 11.791025 2.5158966 11.791025 2.5361724C11.791025 2.661207 12.045599 2.9923794 12.546262 3.1740172C13.206457 3.4139483 14.195902 3.5144827 14.360527 3.542362C14.360527 3.5710862 14.193357 3.8811378 14.00582 3.9419656C13.966785 3.953793 13.935388 3.9554827 13.888716 3.9453449C13.19882 3.8101723 13.007041 3.7527242 12.132154 3.4215517C12.105848 3.4114139 12.088877 3.4283104 12.088877 3.4553449C12.088877 3.8000345 12.984978 4.5603795 13.787735 4.8526897C13.117356 5.7042761 12.280656 6.576138 11.885218 7.9050517C11.773205 7.9126554 11.665436 7.9177241 11.553423 7.9177241C9.5635014 7.9177241 7.5930977 6.6386552 7.5930977 4.9980001C7.5930977 4.1236033 7.9868393 3.5102587 8.4756212 2.8327069C8.7624416 2.880862 9.0229559 2.9070518 9.2274637 2.9070518C10.130353 2.9070518 10.618287 2.4271896 10.653079 1.954931C10.653079 1.5308276 10.307707 1.2106379 9.7680092 1.2106379C8.9296122 1.2106379 7.4081073 1.9870344 5.8687825 1.9870344C6.0215268 2.1010861 6.2727065 2.2218966 6.5748014 2.3351035C5.6753058 3.1410689 5.0736623 4.2232933 4.8445458 5.3807068L2.4914322 9.1292067C2.0951452 9.7586031 1.260142 10.989517 0 11.950931C1.5223533 11.950931 2.5321641 11.984724 3.8203092 9.9562931L5.0269904 8.0343103C5.11694 8.283534 5.2264071 8.526845 5.355391 8.7650862L2.9564543 12.587087C2.5567729 13.220707 1.729407 14.441483 0.4641735 15.408811C1.9873754 15.408811 2.9963377 15.443448 4.2844825 13.416707L6.3499274 10.124413C6.5043693 10.28831 6.6672964 10.448828 6.8378611 10.601742L3.923836 15.246603C3.5233059 15.881914 2.7001829 17.100155 1.4332523 18.065794C2.9564543 18.065794 3.9654164 18.102121 5.2527127 16.07369L8.0937605 11.544569C8.2812967 11.662845 8.4730759 11.776896 8.6716433 11.88419L5.2026467 17.410208C4.8021169 18.045517 3.9789937 19.259535 2.7120631 20.229397C4.2344165 20.229397 5.2433786 20.264034 6.5323725 18.237293L10.103199 12.54569C10.315344 12.625948 10.529186 12.703672 10.746423 12.772948L6.7114229 19.20293C6.316833 19.829794 5.4750409 21.065775 4.2216878 22.022121C5.7431922 22.022121 6.7538519 22.056759 8.0411482 20.030018L12.342603 13.177621C12.38588 13.18438 12.429157 13.191138 12.471587 13.199586C12.588691 13.570465 12.671003 13.916 12.671003 14.26069C12.671003 16.414156 11.251328 18.315863 9.5473785 19.784172C9.6568451 19.832327 9.8469276 19.848379 10.021735 19.848379C10.373896 19.848379 10.600467 19.829794 10.760849 19.801914C10.36541 20.694897 9.5168295 21.84893 9.0891447 22.445379C8.5316277 22.344845 7.7203851 22.267965 7.1891737 22.267965C6.6333532 22.267965 6.5697098 22.590689 6.5697098 22.880466C6.5697098 23.382294 6.8064637 23.781897 7.0814037 24.00493C7.184082 23.748104 7.3919845 23.405104 8.418767 23.405104C8.4391327 23.405104 8.4739246 23.407639 8.5214443 23.411016C8.2227449 23.743034 7.2825174 24.5 7.2825174 25.109121C7.2825174 25.512104 7.726325 26.117846 8.3118458 26.117846C8.2779026 25.986897 8.2812967 25.867775 8.2812967 25.778225C8.2812967 25.284 8.7208614 24.706984 9.091691 24.303156C9.0806589 24.423965 9.0865993 24.411293 9.0865993 24.551535C9.0865993 25.717396 9.1926718 26.253862 9.9360285 26.253862C10.300918 26.253862 10.552946 26.054483 10.639502 25.994499C10.156659 25.552654 10.131202 25.203741 10.131202 24.549845C10.132899 24.380035 10.133748 24.213604 10.136293 23.98381C10.137142 23.833431 10.135445 23.635742 10.110836 23.492966C10.376442 23.456638 10.48506 23.456638 10.689568 23.456638C10.689568 23.456638 11.746051 23.372154 12.001473 23.920448C12.288294 23.658552 12.704947 23.288517 12.704947 22.88131C12.704947 22.611811 12.575962 22.307673 12.031174 22.307673C11.824968 22.307673 11.176653 22.432707 10.63441 22.432707C10.780366 22.110828 11.428681 21.166311 11.99129 20.481155C12.076997 20.746431 12.208527 21.033672 12.502984 21.269379C12.544564 20.828379 12.804231 19.433569 13.495823 18.618311C13.576439 19.169138 13.685057 19.734327 13.685057 20.925535C13.685057 23.824984 12.984978 25.965776 11.499114 26.374672C11.69259 26.70838 12.101605 27.010828 12.525896 27.010828C13.069836 27.010828 13.365142 26.398327 13.667236 25.820465C13.824224 26.246258 14.258698 27.291311 14.694019 27.291311C15.129341 27.291311 15.564663 26.246258 15.722499 25.820465C16.022896 26.398327 16.319899 27.010828 16.863838 27.010828C17.287281 27.010828 17.696297 26.70838 17.890621 26.374672C16.403908 25.965776 15.702981 23.824984 15.702981 20.925535C15.702981 19.734327 15.8116 19.169138 15.892215 18.618311C16.585505 19.433569 16.84602 20.828379 16.885054 21.269379C17.180359 21.033672 17.314436 20.746431 17.398445 20.481155C17.959356 21.166311 18.608521 22.110828 18.754477 22.432707C18.212233 22.432707 17.56307 22.307673 17.357714 22.307673C16.814621 22.307673 16.686485 22.611811 16.686485 22.88131C16.686485 23.288517 17.102291 23.658552 17.389111 23.920448C17.642836 23.372154 18.701015 23.456638 18.701015 23.456638C18.904675 23.456638 19.012445 23.456638 19.279747 23.492966C19.25429 23.635742 19.253441 23.833431 19.25429 23.98381C19.256836 24.213604 19.256836 24.380035 19.258533 24.549845C19.258533 25.203741 19.233076 25.552654 18.750233 25.994499C18.836788 26.054483 19.087969 26.253862 19.452858 26.253862C20.197063 26.253862 20.303984 25.717396 20.303984 24.551535C20.303984 24.411293 20.307379 24.423965 20.297195 24.303156C20.668875 24.706984 21.10759 25.284 21.10759 25.778225C21.10759 25.867775 21.11268 25.986897 21.076193 26.117846C21.662561 26.117846 22.108067 25.512104 22.108067 25.109121C22.108067 24.5 21.168688 23.743034 20.866592 23.411016C20.915812 23.407639 20.950602 23.405104 20.969271 23.405104C21.997751 23.405104 22.205652 23.748104 22.308331 24.00493C22.582422 23.781897 22.819176 23.382294 22.819176 22.880466C22.819176 22.590689 22.756382 22.267965 22.200562 22.267965C21.66935 22.267965 20.858955 22.344845 20.299742 22.445379C19.871208 21.84893 19.025173 20.694897 18.628887 19.801914C18.78842 19.829794 19.016687 19.848379 19.368 19.848379C19.543655 19.848379 19.732889 19.832327 19.842356 19.784172C18.138407 18.315863 16.718731 16.414156 16.718731 14.26069C16.718731 13.916 16.800196 13.570465 16.917299 13.199586C16.958879 13.191138 17.004704 13.18438 17.047132 13.177621L21.348587 20.030018C22.635883 22.056759 23.646544 22.022121 25.167198 22.022121C23.913845 21.065775 23.072054 19.829794 22.678312 19.20293L18.641615 12.772948C18.860548 12.703672 19.076088 12.625948 19.287384 12.54569L22.857363 18.237293C24.145508 20.264034 25.155319 20.229397 26.677671 20.229397C25.410742 19.259535 24.587618 18.045517 24.187088 17.410208L20.718941 11.88419C20.915812 11.776896 21.10759 11.662845 21.294277 11.544569L24.137022 16.07369C25.425167 18.102121 26.433281 18.065794 27.955633 18.065794C26.688704 17.100155 25.867277 15.881914 25.465899 15.246603L22.551025 10.601742C22.722439 10.448828 22.886215 10.28831 23.038111 10.124413L25.1061 13.416707C26.393398 15.443448 27.402359 15.408811 28.924713 15.408811C27.65863 14.441483 26.833811 13.220707 26.433281 12.587087L24.035192 8.7650862C24.163328 8.526845 24.272795 8.283534 24.363592 8.0343103L25.568577 9.9562931Z" fill-rule="evenodd"></path>
  <path transform="translate(37.0303 1.198)" d="M0 0L4.4041324 0L4.4041324 25.055897L0 25.055897L0 0Z"></path>
  <path fill="red" transform="translate(37.0303 26.2539)" d="M0 0L4.4041324 0L4.4041324 25.055897L0 25.055897L0 0Z"></path>
  <path fill="#FC0" transform="translate(37.0303 51.3098)" d="M0 0L4.4041324 0L4.4041324 25.055897L0 25.055897L0 0Z"></path>
  <path transform="matrix(1 8.74228e-08 8.74228e-08 -1 50.1985 41.6603)" d="M6.1871877 37.8316C6.1871877 37.474037 6.1419797 37.161484 6.0528197 36.893936C5.9624043 36.626389 5.8405943 36.3951 5.6861343 36.202564C5.5316749 36.008781 5.3533549 35.852505 5.1486645 35.733734C4.9439735 35.614964 4.7330036 35.524948 4.5132437 35.466187L4.5132437 35.43618C4.7819791 35.386173 5.034389 35.292408 5.2679625 35.153633C5.5027919 35.014858 5.7062268 34.84108 5.8807793 34.63229C6.0553312 34.423504 6.1947222 34.178463 6.2989511 33.895912C6.4044361 33.613365 6.4559226 33.30331 6.4559226 32.965752C6.4559226 32.559429 6.3868551 32.188114 6.2474647 31.850557C6.1068182 31.512997 5.8908253 31.220446 5.5969748 30.972904C5.303124 30.72411 4.9314156 30.531576 4.4831052 30.392801C4.0347948 30.254028 3.5023475 30.184015 2.8845077 30.184015L0.77732271 30.184015L0.77732271 40.449558L2.7652094 40.449558C3.373003 40.449558 3.8928924 40.387047 4.3261337 40.263275C4.7606306 40.139503 5.116014 39.963223 5.3947954 39.735683C5.6735768 39.506893 5.8757563 39.231846 6.0000777 38.909286C6.1243987 38.587982 6.1871877 38.227921 6.1871877 37.8316ZM4.8723946 37.786591C4.8723946 38.262924 4.7028651 38.654243 4.3638067 38.961796C4.0247483 39.269352 3.4923012 39.423126 2.7652094 39.423126L2.0770464 39.423126L2.0770464 35.882511L2.7501402 35.882511C3.4470935 35.882511 3.9757733 36.051289 4.3336682 36.387596C4.6928191 36.725159 4.8723946 37.191486 4.8723946 37.786591ZM5.0657835 33.055767C5.0657835 33.610863 4.8849521 34.04969 4.5207782 34.372246C4.1578603 34.694801 3.6367149 34.856079 2.9585984 34.856079L2.0770464 34.856079L2.0770464 31.255453L2.8845077 31.255453C3.6517842 31.255453 4.2068353 31.406729 4.5509167 31.709282C4.8949986 32.011833 5.0657835 32.460663 5.0657835 33.055767ZM13.076351 30.184015L11.970016 30.184015L11.970016 30.987906L11.939878 30.987906C11.910995 30.927895 11.845695 30.841631 11.74649 30.72661C11.646028 30.612841 11.519195 30.504072 11.364735 30.400303C11.210275 30.295284 11.024421 30.20402 10.80466 30.124004C10.586156 30.045242 10.341281 30.005234 10.072545 30.005234C9.7535791 30.005234 9.4672632 30.052742 9.2135973 30.146509C8.9586754 30.241526 8.7426834 30.392801 8.5631075 30.600338C8.3835325 30.809124 8.2466536 31.079172 8.1524706 31.41173C8.0570316 31.744287 8.0105677 32.153111 8.0105677 32.639442L8.0105677 37.32526L9.2211323 37.32526L9.2211323 32.72821C9.2211323 32.133106 9.3178263 31.709282 9.5124712 31.455488C9.7058601 31.202944 10.007245 31.076672 10.416627 31.076672C10.764476 31.076672 11.058326 31.162937 11.298179 31.336718C11.536776 31.510496 11.726397 31.681776 11.865788 31.850557L11.865788 37.32526L13.076351 37.32526L13.076351 30.184015ZM18.84411 30.184015L18.84411 34.781067C18.84411 35.386173 18.742393 35.82 18.537703 36.082546C18.334269 36.34634 18.022837 36.477615 17.604664 36.477615C17.245514 36.477615 16.94664 36.387596 16.708044 36.210068C16.468191 36.031284 16.27857 35.857506 16.139179 35.688725L16.139179 30.184015L14.928615 30.184015L14.928615 37.32526L16.03495 37.32526L16.03495 36.52137L16.065088 36.52137C16.095226 36.581383 16.159271 36.667648 16.259733 36.782665C16.358938 36.896435 16.488283 37.005207 16.647766 37.110226C16.807249 37.213993 16.99687 37.30526 17.215376 37.385273C17.435135 37.464035 17.683779 37.504044 17.962559 37.504044C18.281525 37.504044 18.570353 37.456535 18.829042 37.362766C19.088987 37.26775 19.307491 37.116474 19.487066 36.908939C19.666641 36.700153 19.806032 36.430107 19.905239 36.097546C20.004444 35.766239 20.054676 35.356167 20.054676 34.871082L20.054676 30.184015L18.84411 30.184015ZM21.533974 33.650871C21.533974 34.374748 21.629414 34.979851 21.81778 35.466187C22.007401 35.951271 22.25102 36.343842 22.549894 36.641392C22.848768 36.938946 23.187826 37.148979 23.567068 37.272751C23.945057 37.396523 24.324299 37.459034 24.702286 37.459034C24.932093 37.459034 25.130505 37.441532 25.300034 37.406525C25.469563 37.372768 25.608953 37.330261 25.718206 37.280254L25.718206 40.702099L26.92877 40.835873L26.92877 30.184015L25.82369 30.184015L25.82369 30.942898L25.793552 30.942898C25.763414 30.882887 25.70816 30.801624 25.629045 30.697855C25.548677 30.592836 25.439425 30.489069 25.300034 30.385302C25.160643 30.280283 24.986092 30.191517 24.777634 30.116505C24.567919 30.042742 24.324299 30.005234 24.044262 30.005234C23.706459 30.005234 23.384981 30.072746 23.081085 30.20652C22.777189 30.340294 22.510965 30.554081 22.281158 30.846632C22.052608 31.139183 21.870522 31.515497 21.736153 31.976828C21.601786 32.43816 21.533974 32.995758 21.533974 33.650871ZM24.373274 31.076672C24.562895 31.076672 24.732426 31.101675 24.881863 31.151684C25.031298 31.200443 25.160643 31.262955 25.269896 31.336718C25.379147 31.41173 25.472075 31.487993 25.546165 31.568007C25.621511 31.64677 25.67802 31.716784 25.718206 31.775543L25.718206 36.180061C25.608953 36.248825 25.482121 36.308834 25.337708 36.358845C25.193293 36.4076 25.011206 36.432606 24.791447 36.432606C24.512665 36.432606 24.251465 36.385098 24.007845 36.291332C23.76297 36.197563 23.552 36.041286 23.372423 35.822498C23.192848 35.604961 23.050947 35.322411 22.946718 34.97485C22.841232 34.627293 22.789745 34.200966 22.789745 33.69463C22.789745 33.199543 22.832441 32.785721 22.916578 32.453163C23.000715 32.120602 23.118759 31.853056 23.268194 31.649271C23.417631 31.446735 23.587162 31.300461 23.775526 31.210445C23.965149 31.121679 24.164816 31.076672 24.373274 31.076672ZM33.384693 34.914841C33.384693 34.607288 33.374645 34.342239 33.354553 34.119701C33.334461 33.895912 33.314369 33.699631 33.295532 33.532101L29.633701 33.532101C29.673887 32.688202 29.855974 32.068096 30.178707 31.671776C30.502697 31.275455 30.968588 31.076672 31.576382 31.076672C31.786095 31.076672 31.974461 31.101675 32.14399 31.151684C32.313519 31.200443 32.460445 31.260454 32.584766 31.329216C32.709087 31.399227 32.814571 31.467989 32.898708 31.538002C32.9841 31.606764 33.045635 31.661774 33.085819 31.70178L33.53413 30.854132C33.483898 30.804123 33.409809 30.731611 33.309345 30.637844C33.21014 30.544079 33.075771 30.449062 32.906242 30.355295C32.736713 30.26153 32.528255 30.179014 32.278358 30.110252C32.029716 30.040241 31.735865 30.005234 31.396805 30.005234C30.948496 30.005234 30.542881 30.080248 30.178707 30.229023C29.815788 30.3778 29.506868 30.60784 29.253202 30.920395C28.998281 31.232948 28.802382 31.629269 28.662991 32.110603C28.522345 32.591934 28.453278 33.169537 28.453278 33.843403C28.453278 34.478516 28.524857 35.027359 28.670525 35.487442C28.813683 35.948772 29.010839 36.328838 29.260738 36.626389C29.50938 36.923943 29.798208 37.143978 30.12722 37.287754C30.456232 37.43153 30.809105 37.504044 31.188347 37.504044C31.875256 37.504044 32.412724 37.287754 32.802013 36.85643C33.190048 36.425106 33.384693 35.777493 33.384693 34.914841ZM31.113001 36.52137C30.684784 36.52137 30.340702 36.343842 30.082012 35.986279C29.823324 35.628716 29.673887 35.113625 29.633701 34.438507L32.248219 34.438507C32.258266 34.488518 32.2658 34.561028 32.270824 34.654797C32.275845 34.748562 32.278358 34.851078 32.278358 34.95985C32.278358 35.456184 32.17915 35.840004 31.979485 36.112549C31.781073 36.385098 31.492245 36.52137 31.113001 36.52137ZM38.091324 35.882511C38.012211 35.971275 37.867798 36.092545 37.658085 36.246323C37.449627 36.400101 37.175869 36.477615 36.836807 36.477615C36.517841 36.477615 36.274223 36.402599 36.104694 36.253826C35.935165 36.105049 35.849773 35.926266 35.849773 35.718731C35.849773 35.451183 35.927631 35.229897 36.082088 35.056114C36.236549 34.882336 36.472633 34.697304 36.791603 34.49852L37.23991 34.230972C37.728409 33.94342 38.111416 33.633366 38.390198 33.300808C38.670235 32.96825 38.809628 32.539425 38.809628 32.014336C38.809628 31.449236 38.612469 30.972904 38.219414 30.585335C37.8251 30.199018 37.260006 30.005234 36.522865 30.005234C36.234039 30.005234 35.980373 30.03524 35.760612 30.095251C35.542107 30.154011 35.349976 30.224022 35.185471 30.302786C35.020962 30.382801 34.884083 30.469065 34.77483 30.562832C34.664326 30.657848 34.575165 30.744114 34.504841 30.824127L35.088776 31.775543C35.147797 31.716784 35.220631 31.64677 35.304768 31.568007C35.39016 31.487993 35.491879 31.41173 35.611176 31.336718C35.730473 31.262955 35.864841 31.200443 36.014278 31.151684C36.163715 31.101675 36.338268 31.076672 36.537937 31.076672C36.895832 31.076672 37.170845 31.156685 37.359211 31.314213C37.548832 31.47299 37.643013 31.666775 37.643013 31.895565C37.643013 32.063095 37.621666 32.20937 37.576458 32.334393C37.53125 32.458164 37.464695 32.569431 37.374279 32.668198C37.285118 32.768215 37.175869 32.861984 37.045269 32.950748C36.915924 33.040764 36.766487 33.13953 36.596958 33.248299L36.148647 33.532101C35.700336 33.819649 35.349976 34.122204 35.09631 34.438507C34.841389 34.756062 34.714554 35.163635 34.714554 35.658722C34.714554 35.926266 34.767296 36.172562 34.871525 36.3951C34.975754 36.618889 35.122681 36.81142 35.312302 36.975201C35.501923 37.138981 35.722939 37.26775 35.977859 37.362766C36.231525 37.456535 36.502773 37.504044 36.791603 37.504044C37.070381 37.504044 37.310234 37.47654 37.508648 37.421528C37.708313 37.367767 37.880356 37.297756 38.024769 37.213993C38.169182 37.128979 38.288483 37.045212 38.383919 36.961449C38.478104 36.876434 38.554707 36.805172 38.614983 36.745159L38.091324 35.882511ZM43.994709 30.184015L43.994709 34.781067C43.994709 35.366169 43.909317 35.787495 43.741043 36.046288C43.571514 36.303833 43.297756 36.432606 42.91851 36.432606C42.718845 36.432606 42.543037 36.4076 42.388577 36.358845C42.234116 36.308834 42.097237 36.246323 41.976685 36.172562C41.857384 36.097546 41.753155 36.016285 41.663994 35.926266C41.573582 35.837502 41.499489 35.758739 41.439213 35.688725L41.439213 30.184015L40.228649 30.184015L40.228649 37.32526L41.334984 37.32526L41.334984 36.52137L41.363865 36.52137C41.414097 36.601387 41.489445 36.697651 41.58865 36.81142C41.687855 36.926441 41.813431 37.03521 41.962868 37.138981C42.112305 37.243996 42.285603 37.330261 42.485271 37.400276C42.684937 37.469036 42.908466 37.504044 43.158363 37.504044C43.974617 37.504044 44.552269 37.186489 44.891331 36.551376C44.960396 36.651394 45.055836 36.757664 45.175133 36.871433C45.294434 36.985203 45.433823 37.090221 45.593304 37.183987C45.752789 37.277752 45.932365 37.355267 46.13203 37.414028C46.330444 37.474037 46.550205 37.504044 46.788799 37.504044C48.24424 37.504044 48.971333 36.661396 48.971333 34.97485L48.971333 30.184015L47.760769 30.184015L47.760769 34.781067C47.760769 35.366169 47.655281 35.787495 47.446823 36.046288C47.23711 36.303833 46.928192 36.432606 46.520065 36.432606C46.181007 36.432606 45.899715 36.351341 45.676186 36.187565C45.451405 36.023785 45.274338 35.867508 45.144997 35.718731C45.165089 35.609962 45.180157 35.492443 45.190205 35.368671C45.200249 35.2449 45.205273 35.113625 45.205273 34.97485L45.205273 30.184015L43.994709 30.184015ZM51.988953 30.184015L50.778389 30.184015L50.778389 37.32526L51.988953 37.32526L51.988953 30.184015ZM51.391205 39.050564C51.142563 39.050564 50.942894 39.130577 50.793457 39.289352C50.64402 39.448132 50.569927 39.655666 50.569927 39.914463C50.569927 40.162006 50.64402 40.365791 50.793457 40.52457C50.942894 40.682098 51.142563 40.762112 51.391205 40.762112C51.631058 40.762112 51.825703 40.682098 51.975136 40.52457C52.124573 40.365791 52.198666 40.162006 52.198666 39.914463C52.198666 39.655666 52.124573 39.448132 51.975136 39.289352C51.825703 39.130577 51.631058 39.050564 51.391205 39.050564ZM57.757965 30.184015L57.757965 34.781067C57.757965 35.386173 57.65625 35.82 57.451557 36.082546C57.246868 36.34634 56.935436 36.477615 56.517265 36.477615C56.15937 36.477615 55.860497 36.387596 55.620644 36.210068C55.382046 36.031284 55.192425 35.857506 55.053036 35.688725L55.053036 30.184015L53.842472 30.184015L53.842472 37.32526L54.948807 37.32526L54.948807 36.52137L54.977688 36.52137C55.007828 36.581383 55.073128 36.667648 55.172333 36.782665C55.271538 36.896435 55.402138 37.005207 55.561623 37.110226C55.719849 37.213993 55.90947 37.30526 56.12923 37.385273C56.347736 37.464035 56.597633 37.504044 56.876415 37.504044C57.195381 37.504044 57.484207 37.456535 57.742897 37.362766C58.001587 37.26775 58.221348 37.116474 58.400921 36.908939C58.579243 36.700153 58.718632 36.430107 58.819096 36.097546C58.918301 35.766239 58.968529 35.356167 58.968529 34.871082L58.968529 30.184015L57.757965 30.184015ZM61.987408 30.184015L60.77684 30.184015L60.77684 37.32526L61.987408 37.32526L61.987408 30.184015ZM61.38966 39.050564C61.139759 39.050564 60.941349 39.130577 60.791912 39.289352C60.642475 39.448132 60.567127 39.655666 60.567127 39.914463C60.567127 40.162006 60.642475 40.365791 60.791912 40.52457C60.941349 40.682098 61.139759 40.762112 61.38966 40.762112C61.628254 40.762112 61.822899 40.682098 61.972336 40.52457C62.121773 40.365791 62.195866 40.162006 62.195866 39.914463C62.195866 39.655666 62.121773 39.448132 61.972336 39.289352C61.822899 39.130577 61.628254 39.050564 61.38966 39.050564ZM66.932632 35.882511C66.853523 35.971275 66.709106 36.092545 66.499397 36.246323C66.290939 36.400101 66.015923 36.477615 65.678116 36.477615C65.359154 36.477615 65.115532 36.402599 64.946007 36.253826C64.776474 36.105049 64.691086 35.926266 64.691086 35.718731C64.691086 35.451183 64.768944 35.229897 64.923401 35.056114C65.077858 34.882336 65.313942 34.697304 65.632912 34.49852L66.081223 34.230972C66.569717 33.94342 66.952728 33.633366 67.231506 33.300808C67.511543 32.96825 67.65094 32.539425 67.65094 32.014336C67.65094 31.449236 67.453781 30.972904 67.060722 30.585335C66.666412 30.199018 66.101311 30.005234 65.364174 30.005234C65.075348 30.005234 64.821686 30.03524 64.601921 30.095251C64.383415 30.154011 64.191284 30.224022 64.026779 30.302786C63.862274 30.382801 63.725395 30.469065 63.616142 30.562832C63.505634 30.657848 63.416473 30.744114 63.346149 30.824127L63.930084 31.775543C63.989105 31.716784 64.061943 31.64677 64.14608 31.568007C64.231468 31.487993 64.333191 31.41173 64.452484 31.336718C64.571785 31.262955 64.706154 31.200443 64.855591 31.151684C65.005028 31.101675 65.179581 31.076672 65.379242 31.076672C65.737137 31.076672 66.012154 31.156685 66.200523 31.314213C66.390144 31.47299 66.484322 31.666775 66.484322 31.895565C66.484322 32.063095 66.462975 32.20937 66.41777 32.334393C66.372559 32.458164 66.306007 32.569431 66.215591 32.668198C66.126427 32.768215 66.015923 32.861984 65.886574 32.950748C65.757233 33.040764 65.607796 33.13953 65.438271 33.248299L64.98996 33.532101C64.541649 33.819649 64.191284 34.122204 63.937618 34.438507C63.682697 34.756062 63.555866 35.163635 63.555866 35.658722C63.555866 35.926266 63.608608 36.172562 63.712837 36.3951C63.817066 36.618889 63.963989 36.81142 64.15361 36.975201C64.343231 37.138981 64.564247 37.26775 64.819168 37.362766C65.072838 37.456535 65.344086 37.504044 65.632912 37.504044C65.91169 37.504044 66.151543 37.47654 66.34996 37.421528C66.549622 37.367767 66.721664 37.297756 66.866081 37.213993C67.01049 37.128979 67.129791 37.045212 67.225227 36.961449C67.319412 36.876434 67.396011 36.805172 67.456291 36.745159L66.932632 35.882511ZM72.134041 36.343842L70.564323 36.343842L70.564323 32.385651C70.564323 31.880562 70.629631 31.535501 70.758972 31.351719C70.888313 31.167938 71.108078 31.076672 71.415741 31.076672C71.595314 31.076672 71.749779 31.101675 71.87912 31.151684C72.008461 31.200443 72.103905 31.245451 72.162926 31.285458L72.327431 30.317789C72.278458 30.277782 72.157898 30.216522 71.969536 30.131506C71.779915 30.047743 71.526245 30.005234 71.207283 30.005234C70.589439 30.005234 70.12606 30.176514 69.817146 30.519073C69.508224 30.860384 69.35376 31.429234 69.35376 32.22187L69.35376 36.343842L68.487282 36.343842L68.487282 37.146481L69.35376 37.32526L69.488129 39.319359L70.564323 39.319359L70.564323 37.32526L72.283478 37.32526L72.134041 36.343842ZM78.006027 34.914841C78.006027 34.607288 77.995987 34.342239 77.975891 34.119701C77.957054 33.895912 77.936966 33.699631 77.91687 33.532101L74.255043 33.532101C74.295227 32.688202 74.47731 32.068096 74.8013 31.671776C75.12529 31.275455 75.591179 31.076672 76.197716 31.076672C76.407433 31.076672 76.597054 31.101675 76.766586 31.151684C76.936111 31.200443 77.083038 31.260454 77.207359 31.329216C77.33168 31.399227 77.435913 31.467989 77.521301 31.538002C77.605438 31.606764 77.668228 31.661774 77.707153 31.70178L78.155464 30.854132C78.106491 30.804123 78.031143 30.731611 77.931938 30.637844C77.832733 30.544079 77.697113 30.449062 77.52758 30.355295C77.359306 30.26153 77.149597 30.179014 76.900955 30.110252C76.651054 30.040241 76.357201 30.005234 76.019402 30.005234C75.571091 30.005234 75.164223 30.080248 74.8013 30.229023C74.437126 30.3778 74.128204 30.60784 73.874542 30.920395C73.620872 31.232948 73.423721 31.629269 73.284332 32.110603C73.144936 32.591934 73.074615 33.169537 73.074615 33.843403C73.074615 34.478516 73.147453 35.027359 73.291862 35.487442C73.436279 35.948772 73.63343 36.328838 73.882072 36.626389C74.130722 36.923943 74.419548 37.143978 74.748558 37.287754C75.077568 37.43153 75.430443 37.504044 75.809685 37.504044C76.49659 37.504044 77.035316 37.287754 77.423355 36.85643C77.812645 36.425106 78.006027 35.777493 78.006027 34.914841ZM75.735596 36.52137C75.306122 36.52137 74.963295 36.343842 74.703354 35.986279C74.444664 35.628716 74.295227 35.113625 74.255043 34.438507L76.870811 34.438507C76.880859 34.488518 76.888397 34.561028 76.893417 34.654797C76.898438 34.748562 76.900955 34.851078 76.900955 34.95985C76.900955 35.456184 76.800491 35.840004 76.602081 36.112549C76.402412 36.385098 76.113579 36.52137 75.735596 36.52137ZM82.772942 36.268826C82.744057 36.28883 82.678757 36.313835 82.579552 36.343842C82.479088 36.372597 82.344719 36.387596 82.175194 36.387596C81.797203 36.387596 81.500847 36.286331 81.28611 36.082546C81.072624 35.880009 80.920677 35.658722 80.830261 35.421181L80.830261 30.184015L79.620956 30.184015L79.620956 37.32526L80.726028 37.32526L80.726028 36.358845L80.756172 36.358845C80.806404 36.497616 80.870445 36.633892 80.950813 36.767666C81.02993 36.901436 81.129135 37.020206 81.249687 37.123978C81.368988 37.228996 81.510887 37.310257 81.675392 37.37027C81.839905 37.429031 82.035805 37.459034 82.26561 37.459034C82.435135 37.459034 82.572014 37.444031 82.676247 37.414028C82.780472 37.385273 82.863358 37.360268 82.922379 37.340263L82.772942 36.268826ZM85.179001 30.184015L83.968437 30.184015L83.968437 37.32526L85.179001 37.32526L85.179001 30.184015ZM84.581253 39.050564C84.332611 39.050564 84.132942 39.130577 83.983505 39.289352C83.834068 39.448132 83.759979 39.655666 83.759979 39.914463C83.759979 40.162006 83.834068 40.365791 83.983505 40.52457C84.132942 40.682098 84.332611 40.762112 84.581253 40.762112C84.821106 40.762112 85.014496 40.682098 85.163933 40.52457C85.31337 40.365791 85.38871 40.162006 85.38871 39.914463C85.38871 39.655666 85.31337 39.448132 85.163933 39.289352C85.014496 39.130577 84.821106 39.050564 84.581253 39.050564ZM92.053093 30.184015L90.948013 30.184015L90.948013 30.987906L90.917877 30.987906C90.887741 30.927895 90.823692 30.841631 90.723228 30.72661C90.624023 30.612841 90.497192 30.504072 90.342735 30.400303C90.188271 30.295284 90.00116 30.20402 89.782661 30.124004C89.562897 30.045242 89.319275 30.005234 89.049286 30.005234C88.731575 30.005234 88.445259 30.052742 88.190338 30.146509C87.936676 30.241526 87.719429 30.392801 87.541107 30.600338C87.361526 30.809124 87.224648 31.079172 87.129211 31.41173C87.035027 31.744287 86.987312 32.153111 86.987312 32.639442L86.987312 37.32526L88.197876 37.32526L88.197876 32.72821C88.197876 32.133106 88.295822 31.709282 88.489212 31.455488C88.683861 31.202944 88.985245 31.076672 89.393372 31.076672C89.74247 31.076672 90.036324 31.162937 90.274918 31.336718C90.514771 31.510496 90.70314 31.681776 90.842529 31.850557L90.842529 37.32526L92.053093 37.32526L92.053093 30.184015ZM97.672668 30.184015L97.672668 34.781067C97.672668 35.366169 97.58728 35.787495 97.417747 36.046288C97.249474 36.303833 96.974464 36.432606 96.596474 36.432606C96.396805 36.432606 96.219742 36.4076 96.066544 36.358845C95.912079 36.308834 95.773949 36.246323 95.654648 36.172562C95.535347 36.097546 95.431122 36.016285 95.340706 35.926266C95.251541 35.837502 95.176201 35.758739 95.11718 35.688725L95.11718 30.184015L93.906616 30.184015L93.906616 37.32526L95.012947 37.32526L95.012947 36.52137L95.041832 36.52137C95.092064 36.601387 95.167404 36.697651 95.266617 36.81142C95.365822 36.926441 95.490143 37.03521 95.63958 37.138981C95.789017 37.243996 95.96357 37.330261 96.163231 37.400276C96.3629 37.469036 96.586433 37.504044 96.835075 37.504044C97.65258 37.504044 98.230232 37.186489 98.56929 36.551376C98.638359 36.651394 98.733803 36.757664 98.853096 36.871433C98.972397 36.985203 99.111786 37.090221 99.271271 37.183987C99.430756 37.277752 99.610329 37.355267 99.808739 37.414028C100.00841 37.474037 100.22816 37.504044 100.46677 37.504044C101.92095 37.504044 102.64804 36.661396 102.64804 34.97485L102.64804 30.184015L101.43873 30.184015L101.43873 34.781067C101.43873 35.366169 101.33324 35.787495 101.12479 36.046288C100.91508 36.303833 100.60616 36.432606 100.19803 36.432606C99.858971 36.432606 99.577675 36.351341 99.354149 36.187565C99.129364 36.023785 98.952301 35.867508 98.82296 35.718731C98.843048 35.609962 98.858124 35.492443 98.868164 35.368671C98.878212 35.2449 98.88324 35.113625 98.88324 34.97485L98.88324 30.184015L97.672668 30.184015ZM3.5425322 21.341223L2.0770464 21.341223L2.0770464 15.181398L0.86773831 15.181398L0.86773831 21.341223L-2.4202862e-13 21.341223L-2.4202862e-13 22.143864L0.86773831 22.307642L0.86773831 23.736641C0.86773831 24.122959 0.92173648 24.455517 1.0309886 24.733065C1.1414965 25.010612 1.2859102 25.238153 1.4642298 25.416935C1.6438053 25.595715 1.8535191 25.724487 2.0921159 25.804502C2.3319681 25.883265 2.585634 25.923273 2.8543692 25.923273C3.1143141 25.923273 3.3328183 25.888266 3.5123937 25.819504C3.6919689 25.749493 3.8112674 25.694483 3.8702886 25.655725L3.6166227 24.658052C3.5563457 24.698059 3.472209 24.740566 3.3629568 24.785574C3.2537045 24.829332 3.1180813 24.851835 2.9585984 24.851835C2.6697707 24.851835 2.4512665 24.763069 2.3018296 24.58429C2.1523929 24.405508 2.0770464 24.07795 2.0770464 23.601618L2.0770464 22.322645L3.6919689 22.322645L3.5425322 21.341223ZM9.7586021 15.181398L8.6522675 15.181398L8.6522675 15.985289L8.6233845 15.985289C8.5932465 15.925279 8.5279465 15.839013 8.4287405 15.723993C8.3295345 15.610223 8.2014456 15.501454 8.0482416 15.397686C7.8937812 15.292667 7.7066712 15.201402 7.4869113 15.121388C7.2684069 15.042624 7.0235314 15.002617 6.7547965 15.002617C6.4358301 15.002617 6.1495142 15.050125 5.8958483 15.143892C5.6421824 15.238909 5.4249339 15.390184 5.2453585 15.597721C5.0657835 15.806507 4.9289041 16.076555 4.8347211 16.409113C4.7405386 16.741671 4.6928191 17.150492 4.6928191 17.636827L4.6928191 22.322645L5.9033833 22.322645L5.9033833 17.725592C5.9033833 17.130489 6.0000777 16.706665 6.1947222 16.452869C6.3893666 16.200327 6.690752 16.074055 7.0988779 16.074055C7.4467268 16.074055 7.7418327 16.160318 7.9804296 16.334099C8.2190266 16.507879 8.4086475 16.679159 8.5480385 16.847939L8.5480385 22.322645L9.7586021 22.322645L9.7586021 15.181398ZM6.784935 24.375502C6.784935 24.147963 6.7146115 23.96418 6.5752211 23.825407C6.4358301 23.686632 6.2663012 23.616619 6.0678892 23.616619C5.8682213 23.616619 5.6986923 23.686632 5.5593014 23.825407C5.4199109 23.96418 5.3508434 24.147963 5.3508434 24.375502C5.3508434 24.604292 5.4199109 24.786823 5.5593014 24.926849C5.6986923 25.065622 5.8682213 25.134384 6.0678892 25.134384C6.2663012 25.134384 6.4358301 25.065622 6.5752211 24.926849C6.7146115 24.786823 6.784935 24.604292 6.784935 24.375502ZM9.0867643 24.375502C9.0867643 24.147963 9.0164413 23.96418 8.8770504 23.825407C8.7376604 23.686632 8.5681305 23.616619 8.3684635 23.616619C8.1700516 23.616619 8.0005217 23.686632 7.8611312 23.825407C7.7217407 23.96418 7.6514173 24.147963 7.6514173 24.375502C7.6514173 24.604292 7.7217407 24.786823 7.8611312 24.926849C8.0005217 25.065622 8.1700516 25.134384 8.3684635 25.134384C8.5681305 25.134384 8.7376604 25.065622 8.8770504 24.926849C9.0164413 24.786823 9.0867643 24.604292 9.0867643 24.375502ZM14.765365 21.266211C14.735226 21.286213 14.669926 21.311218 14.57072 21.341223C14.471514 21.369978 14.335891 21.384981 14.167617 21.384981C13.788374 21.384981 13.492012 21.283712 13.277275 21.079927C13.063794 20.877392 12.911845 20.656103 12.82143 20.418562L12.82143 15.181398L11.612122 15.181398L11.612122 22.322645L12.7172 22.322645L12.7172 21.356226L12.747339 21.356226C12.79757 21.494999 12.861614 21.631273 12.941984 21.765047C13.021097 21.898821 13.120303 22.017591 13.240857 22.121359C13.360156 22.226377 13.502058 22.307642 13.666564 22.367653C13.83107 22.426413 14.026971 22.456417 14.256777 22.456417C14.426306 22.456417 14.563185 22.441416 14.667415 22.411409C14.772899 22.382654 14.854525 22.357651 14.914802 22.337646L14.765365 21.266211ZM29.111301 25.446939L26.599758 15.181398L25.434401 15.181398L23.865942 21.638775C23.755434 22.085102 23.661251 22.501425 23.582138 22.887743C23.501768 23.275311 23.45656 23.582865 23.446514 23.810404L23.417631 23.810404C23.417631 23.582865 23.377447 23.280312 23.297077 22.902746C23.217964 22.52643 23.123781 22.113857 23.013273 21.66753L21.414677 15.181398L20.249319 15.181398L17.798054 25.446939L19.188192 25.446939L20.472847 19.198349C20.573309 18.722015 20.659958 18.273188 20.735304 17.851864C20.809395 17.43054 20.852091 17.105484 20.862137 16.877945L20.892275 16.877945C20.901066 17.105484 20.953808 17.438042 21.049246 17.874369C21.143429 18.310694 21.245146 18.762024 21.354399 19.228354L22.878906 25.446939L24.119608 25.446939L25.613977 19.198349C25.723228 18.722015 25.82369 18.273188 25.912851 17.851864C26.00201 17.43054 26.05224 17.105484 26.062286 16.877945L26.092426 16.877945C26.102472 17.105484 26.146423 17.440542 26.226793 17.88187C26.305906 18.323196 26.396322 18.782026 26.495529 19.25836L27.795252 25.446939L29.111301 25.446939ZM29.514404 18.752022C29.514404 19.407135 29.591005 19.972235 29.745466 20.448566C29.899925 20.923651 30.10964 21.313719 30.373352 21.61627C30.637064 21.918823 30.94096 22.141363 31.285042 22.285137C31.629124 22.428913 31.994553 22.501425 32.383842 22.501425C32.781921 22.501425 33.151119 22.428913 33.488922 22.285137C33.82798 22.141363 34.12183 21.918823 34.370472 21.61627C34.620373 21.313719 34.816273 20.923651 34.960686 20.448566C35.105099 19.972235 35.177933 19.407135 35.177933 18.752022C35.177933 18.088156 35.102589 17.516806 34.953152 17.040472C34.803715 16.56539 34.597767 16.175322 34.334057 15.872769C34.069088 15.570216 33.76268 15.350178 33.414829 15.211404C33.065727 15.07263 32.697784 15.002617 32.308495 15.002617C31.910416 15.002617 31.54122 15.07263 31.202162 15.211404C30.864359 15.350178 30.570507 15.570216 30.32061 15.872769C30.071966 16.175322 29.874811 16.562889 29.730396 17.034222C29.585983 17.504303 29.514404 18.078154 29.514404 18.752022ZM33.922161 18.752022C33.922161 19.704687 33.782772 20.396059 33.50399 20.827383C33.225208 21.258709 32.837177 21.474997 32.338634 21.474997C31.840094 21.474997 31.454571 21.258709 31.180813 20.827383C30.907055 20.396059 30.768919 19.704687 30.768919 18.752022C30.768919 17.799355 30.909567 17.115486 31.188347 16.699163C31.467129 16.282841 31.855162 16.074055 32.353703 16.074055C32.852245 16.074055 33.237766 16.282841 33.511524 16.699163C33.785282 17.115486 33.922161 17.799355 33.922161 18.752022ZM40.61668 15.181398L40.61668 19.77845C40.61668 20.383556 40.514965 20.817381 40.311531 21.079927C40.106838 21.343723 39.795406 21.474997 39.377235 21.474997C39.018085 21.474997 38.719212 21.384981 38.480614 21.207449C38.240761 21.028669 38.052395 20.854889 37.913006 20.68611L37.913006 15.181398L36.702442 15.181398L36.702442 25.699484L37.913006 25.833256L37.913006 21.593767L37.941887 21.593767C37.982075 21.653778 38.044861 21.732542 38.128998 21.831308C38.21439 21.931326 38.331177 22.030094 38.480614 22.12886C38.630051 22.228878 38.812138 22.315144 39.02562 22.390156C39.240356 22.463919 39.491512 22.501425 39.780338 22.501425C40.408222 22.501425 40.906765 22.29764 41.274708 21.891319C41.643902 21.484999 41.827248 20.809881 41.827248 19.868465L41.827248 15.181398L40.61668 15.181398ZM47.551052 15.181398L47.551052 19.77845C47.551052 20.383556 47.449337 20.817381 47.244644 21.079927C47.04121 21.343723 46.729778 21.474997 46.310352 21.474997C45.952457 21.474997 45.653584 21.384981 45.413731 21.207449C45.175133 21.028669 44.985512 20.854889 44.846123 20.68611L44.846123 15.181398L43.635559 15.181398L43.635559 22.322645L44.741894 22.322645L44.741894 21.518753L44.77203 21.518753C44.80217 21.578764 44.866215 21.66503 44.96542 21.78005C45.06588 21.89382 45.195225 22.002588 45.35471 22.107607C45.514191 22.211374 45.703812 22.302641 45.922318 22.382654C46.142078 22.461418 46.39072 22.501425 46.669502 22.501425C46.988468 22.501425 47.277294 22.453917 47.535984 22.360151C47.795929 22.265135 48.014435 22.113857 48.194008 21.906322C48.373585 21.697535 48.512974 21.427488 48.612183 21.094931C48.711388 20.763622 48.76162 20.35355 48.76162 19.868465L48.76162 15.181398L47.551052 15.181398ZM55.172333 19.912224C55.172333 19.60467 55.162285 19.339624 55.142193 19.117085C55.122101 18.893295 55.103264 18.697012 55.083172 18.528233L51.421341 18.528233C51.461529 17.685585 51.643616 17.065477 51.967602 16.669157C52.290337 16.272839 52.756229 16.074055 53.364021 16.074055C53.573734 16.074055 53.763355 16.099058 53.931629 16.149067C54.101158 16.197826 54.248085 16.257835 54.373661 16.326599C54.497982 16.39661 54.602211 16.465372 54.686348 16.535385C54.77174 16.604147 54.833275 16.659157 54.873459 16.699163L55.32177 15.851516C55.271538 15.801507 55.197449 15.728994 55.098244 15.635227C54.99778 15.541461 54.863411 15.446445 54.693882 15.352678C54.524353 15.258912 54.315895 15.176397 54.067253 15.107635C53.817356 15.037623 53.523502 15.002617 53.184444 15.002617C52.736134 15.002617 52.330521 15.07763 51.967602 15.226406C51.603428 15.375182 51.29451 15.605223 51.040844 15.917777C50.785923 16.230331 50.590023 16.62665 50.45063 17.107985C50.311241 17.589319 50.240917 18.16692 50.240917 18.840786C50.240917 19.475897 50.313751 20.024744 50.458164 20.484823C50.602577 20.946154 50.798481 21.32622 51.048378 21.623772C51.29702 21.921324 51.58585 22.141363 51.91486 22.285137C52.243874 22.428913 52.596745 22.501425 52.975986 22.501425C53.662895 22.501425 54.201622 22.285137 54.589653 21.853813C54.977688 21.422487 55.172333 20.774874 55.172333 19.912224ZM52.900642 21.518753C52.472424 21.518753 52.129597 21.341223 51.869652 20.98366C51.610966 20.626099 51.461529 20.111008 51.421341 19.43589L54.037113 19.43589C54.047161 19.485899 54.054695 19.558413 54.059719 19.652178C54.064743 19.745945 54.067253 19.848463 54.067253 19.957232C54.067253 20.453568 53.966793 20.837385 53.768379 21.109932C53.56871 21.382481 53.279884 21.518753 52.900642 21.518753ZM60.701496 15.181398L60.701496 19.77845C60.701496 20.383556 60.599777 20.817381 60.395088 21.079927C60.191654 21.343723 59.880222 21.474997 59.460793 21.474997C59.102898 21.474997 58.804024 21.384981 58.564171 21.207449C58.325577 21.028669 58.135956 20.854889 57.996563 20.68611L57.996563 15.181398L56.785999 15.181398L56.785999 22.322645L57.892334 22.322645L57.892334 21.518753L57.922474 21.518753C57.95261 21.578764 58.016655 21.66503 58.11586 21.78005C58.216324 21.89382 58.345669 22.002588 58.50515 22.107607C58.664635 22.211374 58.854256 22.302641 59.072762 22.382654C59.292519 22.461418 59.541164 22.501425 59.819942 22.501425C60.138908 22.501425 60.427738 22.453917 60.686428 22.360151C60.946373 22.265135 61.164875 22.113857 61.344452 21.906322C61.524025 21.697535 61.663418 21.427488 61.762623 21.094931C61.861828 20.763622 61.91206 20.35355 61.91206 19.868465L61.91206 15.181398L60.701496 15.181398ZM63.525726 16.029047C63.525726 16.297844 63.603584 16.497879 63.758045 16.631651C63.912502 16.765425 64.093338 16.832937 64.303047 16.832937C64.591873 16.832937 64.829216 16.714167 65.012558 16.475374C65.197159 16.237833 65.288834 15.870269 65.288834 15.375182C65.288834 15.037623 65.237343 14.742572 65.133118 14.490027C65.027626 14.236234 64.890747 14.018696 64.721222 13.834913C64.551689 13.651132 64.365837 13.499855 64.161148 13.381084C63.956455 13.262314 63.755531 13.168548 63.555866 13.098536L63.3022 13.619876C63.611118 13.777404 63.864784 13.968687 64.064453 14.192476C64.262863 14.415014 64.373375 14.745072 64.392212 15.181398L64.348259 15.181398C64.118454 15.181398 63.92506 15.252661 63.765579 15.397686C63.606094 15.541461 63.525726 15.751498 63.525726 16.029047ZM73.882072 23.870415C73.841888 23.90917 73.775337 23.966681 73.679893 24.041695C73.585716 24.115458 73.466415 24.187969 73.321999 24.256731C73.177589 24.326744 73.008057 24.385504 72.813416 24.435513C72.618767 24.485521 72.402779 24.509275 72.162926 24.509275C71.714615 24.509275 71.376808 24.390505 71.147003 24.152964C70.918457 23.914171 70.804176 23.636623 70.804176 23.319069C70.804176 23.121534 70.830551 22.937752 70.885803 22.768972C70.941055 22.600193 71.025192 22.433914 71.139473 22.270136C71.255005 22.107607 71.396904 21.943829 71.565178 21.78005C71.734703 21.61627 71.9394 21.439991 72.177994 21.251207L73.015594 20.567339C73.254189 20.368553 73.481483 20.166018 73.694969 19.957232C73.909706 19.748446 74.094299 19.528406 74.248764 19.294617C74.401962 19.062075 74.525032 18.809532 74.614189 18.535734C74.703354 18.263186 74.748558 17.958134 74.748558 17.621824C74.748558 16.837938 74.504936 16.205328 74.016441 15.723993C73.527946 15.243909 72.815926 15.002617 71.87912 15.002617C71.511177 15.002617 71.184677 15.037623 70.900871 15.107635C70.617073 15.176397 70.369682 15.261413 70.161224 15.36018C69.951508 15.458947 69.776955 15.560214 69.637566 15.665233C69.498177 15.769001 69.393951 15.855266 69.323624 15.925279L69.847282 17.055475C69.907562 16.996716 69.996719 16.9167 70.11602 16.817934C70.235313 16.719166 70.37973 16.61915 70.549255 16.520382C70.718788 16.421616 70.910919 16.336599 71.124405 16.267838C71.339142 16.197826 71.580246 16.162819 71.850235 16.162819C72.357567 16.162819 72.749367 16.290342 73.023125 16.542887C73.29689 16.795429 73.433769 17.095482 73.433769 17.443043C73.433769 17.660582 73.406136 17.859365 73.352142 18.038147C73.29689 18.216928 73.216515 18.386957 73.112289 18.550735C73.008057 18.714516 72.876205 18.875793 72.716721 19.034571C72.557236 19.193348 72.367615 19.362127 72.149109 19.540909L71.311508 20.23978C71.022682 20.477322 70.76902 20.703611 70.549255 20.917398C70.330757 21.129936 70.143646 21.353725 69.989182 21.586266C69.834724 21.818806 69.717934 22.072601 69.637566 22.345148C69.558456 22.617695 69.518272 22.932751 69.518272 23.290314C69.518272 23.616619 69.581055 23.924173 69.705376 24.211723C69.829704 24.499273 70.006767 24.748068 70.235313 24.955603C70.465118 25.164391 70.741394 25.328169 71.065376 25.446939C71.389366 25.56571 71.754799 25.625721 72.162926 25.625721C72.501984 25.625721 72.800858 25.593214 73.059547 25.529453C73.319489 25.464443 73.540504 25.389429 73.725105 25.305664C73.909706 25.221901 74.056625 25.134384 74.165878 25.04562C74.275131 24.955603 74.360527 24.891842 74.419548 24.851835L73.882072 23.870415ZM79.142502 21.341223L77.572792 21.341223L77.572792 17.383032C77.572792 16.877945 77.638092 16.532885 77.767433 16.349102C77.896782 16.165319 78.116539 16.074055 78.424202 16.074055C78.603775 16.074055 78.75824 16.099058 78.887581 16.149067C79.018181 16.197826 79.112366 16.242834 79.172646 16.282841L79.335892 15.315172C79.286919 15.275165 79.167618 15.213904 78.977997 15.128889C78.788376 15.045125 78.534714 15.002617 78.215744 15.002617C77.597908 15.002617 77.134521 15.173897 76.825607 15.516457C76.516685 15.857766 76.362228 16.426615 76.362228 17.219254L76.362228 21.341223L75.495743 21.341223L75.495743 22.143864L76.362228 22.322645L76.49659 24.316742L77.572792 24.316742L77.572792 22.322645L79.291939 22.322645L79.142502 21.341223ZM80.098145 16.996716C80.098145 17.413038 80.178513 17.760599 80.337997 18.038147C80.497482 18.315695 80.71096 18.540735 80.979698 18.714516C81.249687 18.888294 81.566147 19.012066 81.929062 19.08708C82.293236 19.160843 82.678757 19.198349 83.086884 19.198349L83.461105 19.198349L83.461105 19.882219C83.461105 20.487324 83.353104 20.904898 83.139626 21.132437C82.924889 21.361227 82.623505 21.474997 82.235474 21.474997C81.87632 21.474997 81.577446 21.397482 81.338852 21.243706C81.10025 21.08993 80.910629 20.953655 80.77124 20.834885L80.26265 21.638775C80.343025 21.717539 80.44474 21.807554 80.569061 21.906322C80.693382 22.005089 80.845329 22.100105 81.024902 22.188871C81.204483 22.277636 81.409172 22.35265 81.637726 22.411409C81.866272 22.47142 82.126221 22.501425 82.415047 22.501425C83.152184 22.501425 83.709747 22.29764 84.088989 21.891319C84.46698 21.484999 84.656601 20.829884 84.656601 19.927227L84.656601 16.669157C84.656601 16.361605 84.666641 16.061552 84.686737 15.769001C84.705574 15.47645 84.725662 15.280166 84.745758 15.181398L83.595474 15.181398L83.550262 15.970286L83.520126 15.970286C83.481194 15.88027 83.420921 15.779003 83.341805 15.665233C83.261436 15.550213 83.162231 15.446445 83.042931 15.352678C82.922379 15.258912 82.777962 15.176397 82.609688 15.107635C82.440163 15.037623 82.240494 15.002617 82.01194 15.002617C81.741951 15.002617 81.490799 15.052626 81.257225 15.151393C81.022392 15.25141 80.818962 15.390184 80.644409 15.567716C80.469856 15.746497 80.335487 15.957784 80.240051 16.200327C80.145866 16.444118 80.098145 16.709166 80.098145 16.996716ZM82.26561 16.029047C82.435135 16.029047 82.584572 16.05405 82.713921 16.104059C82.843262 16.154068 82.955025 16.212828 83.050468 16.282841C83.144646 16.351603 83.223763 16.429115 83.289062 16.51288C83.353104 16.597895 83.410873 16.669157 83.461105 16.729168L83.461105 18.305693L83.071815 18.290691C82.494156 18.270687 82.055893 18.171921 81.757019 17.993139C81.458145 17.814358 81.308708 17.526808 81.308708 17.130489C81.308708 16.762924 81.394104 16.487877 81.563629 16.305344C81.731903 16.121563 81.966736 16.029047 82.26561 16.029047ZM86.150963 18.648252C86.150963 19.372129 86.245148 19.977236 86.434769 20.46357C86.62439 20.948654 86.868011 21.341223 87.166885 21.638775C87.465759 21.936327 87.804817 22.146364 88.182808 22.270136C88.56205 22.393908 88.940033 22.456417 89.319275 22.456417C89.547829 22.456417 89.747498 22.438915 89.917023 22.403908C90.086555 22.370153 90.225945 22.327644 90.335197 22.277636L90.335197 25.699484L91.545761 25.833256L91.545761 15.181398L90.43943 15.181398L90.43943 15.940281L90.409286 15.940281C90.380409 15.88027 90.32515 15.799006 90.244781 15.695238C90.165672 15.590219 90.056419 15.486452 89.917023 15.382684C89.777634 15.277665 89.603081 15.1889 89.393372 15.113887C89.184914 15.040124 88.940033 15.002617 88.661255 15.002617C88.322197 15.002617 88.000717 15.070129 87.698074 15.203902C87.39418 15.337676 87.126701 15.550213 86.898148 15.844014C86.668343 16.136564 86.487511 16.51288 86.353142 16.974211C86.217522 17.435541 86.150963 17.993139 86.150963 18.648252ZM88.990265 16.074055C89.179886 16.074055 89.34816 16.099058 89.497597 16.149067C89.647034 16.197826 89.777634 16.260336 89.886887 16.334099C89.99614 16.409113 90.089066 16.485376 90.163155 16.56539C90.238503 16.644154 90.295013 16.714167 90.335197 16.772926L90.335197 21.177444C90.225945 21.246206 90.097855 21.306217 89.953445 21.356226C89.809029 21.404984 89.628197 21.429989 89.40844 21.429989C89.129654 21.429989 88.868454 21.382481 88.623581 21.288713C88.379959 21.194948 88.167732 21.03867 87.989418 20.819881C87.809837 20.602345 87.667938 20.319796 87.562454 19.972235C87.458221 19.624674 87.405479 19.198349 87.405479 18.692011C87.405479 18.196924 87.448181 17.783102 87.533569 17.450544C87.617706 17.117987 87.734497 16.850439 87.883934 16.646654C88.033371 16.444118 88.202896 16.297844 88.392517 16.207827C88.582138 16.119062 88.780556 16.074055 88.990265 16.074055ZM96.462105 21.341223L94.892395 21.341223L94.892395 17.383032C94.892395 16.877945 94.957695 16.532885 95.087036 16.349102C95.216385 16.165319 95.436142 16.074055 95.745064 16.074055C95.923386 16.074055 96.077843 16.099058 96.208443 16.149067C96.337784 16.197826 96.431969 16.242834 96.492249 16.282841L96.656754 15.315172C96.606522 15.275165 96.487221 15.213904 96.2976 15.128889C96.107979 15.045125 95.854317 15.002617 95.535347 15.002617C94.917511 15.002617 94.454132 15.173897 94.14521 15.516457C93.836288 15.857766 93.681831 16.426615 93.681831 17.219254L93.681831 21.341223L92.815346 21.341223L92.815346 22.143864L93.681831 22.322645L93.817451 24.316742L94.892395 24.316742L94.892395 22.322645L96.611542 22.322645L96.462105 21.341223ZM102.33535 19.912224C102.33535 19.60467 102.32531 19.339624 102.30521 19.117085C102.28513 18.893295 102.26503 18.697012 102.24493 18.528233L98.584366 18.528233C98.623291 17.685585 98.805382 17.065477 99.129364 16.669157C99.453354 16.272839 99.91925 16.074055 100.52704 16.074055C100.7355 16.074055 100.92512 16.099058 101.09465 16.149067C101.26418 16.197826 101.4111 16.257835 101.53542 16.326599C101.65974 16.39661 101.76398 16.465372 101.84937 16.535385C101.9335 16.604147 101.99629 16.659157 102.03648 16.699163L102.48479 15.851516C102.43456 15.801507 102.35921 15.728994 102.26001 15.635227C102.1608 15.541461 102.02644 15.446445 101.8569 15.352678C101.68738 15.258912 101.47766 15.176397 101.22902 15.107635C100.98038 15.037623 100.68652 15.002617 100.34747 15.002617C99.899155 15.002617 99.493538 15.07763 99.129364 15.226406C98.76519 15.375182 98.457527 15.605223 98.202606 15.917777C97.948944 16.230331 97.751785 16.62665 97.612396 17.107985C97.473007 17.589319 97.403938 18.16692 97.403938 18.840786C97.403938 19.475897 97.475517 20.024744 97.619926 20.484823C97.764343 20.946154 97.961502 21.32622 98.210144 21.623772C98.458786 21.921324 98.748871 22.141363 99.076622 22.285137C99.40564 22.428913 99.759766 22.501425 100.13775 22.501425C100.82591 22.501425 101.36339 22.285137 101.75142 21.853813C102.14071 21.422487 102.33535 20.774874 102.33535 19.912224ZM100.06366 21.518753C99.635445 21.518753 99.291359 21.341223 99.032677 20.98366C98.772728 20.626099 98.623291 20.111008 98.584366 19.43589L101.19888 19.43589C101.20892 19.485899 101.21646 19.558413 101.22148 19.652178C101.22651 19.745945 101.22902 19.848463 101.22902 19.957232C101.22902 20.453568 101.12981 20.837385 100.93015 21.109932C100.73048 21.382481 100.44165 21.518753 100.06366 21.518753ZM107.86452 15.181398L107.86452 19.77845C107.86452 20.383556 107.76154 20.817381 107.55811 21.079927C107.35342 21.343723 107.04198 21.474997 106.62381 21.474997C106.26466 21.474997 105.96579 21.384981 105.7272 21.207449C105.48734 21.028669 105.29897 20.854889 105.15958 20.68611L105.15958 15.181398L103.94902 15.181398L103.94902 22.322645L105.0541 22.322645L105.0541 21.518753L105.08424 21.518753C105.11437 21.578764 105.17842 21.66503 105.27888 21.78005C105.37809 21.89382 105.50743 22.002588 105.66692 22.107607C105.8264 22.211374 106.01602 22.302641 106.23453 22.382654C106.45428 22.461418 106.70293 22.501425 106.9817 22.501425C107.30067 22.501425 107.5895 22.453917 107.84945 22.360151C108.10814 22.265135 108.32664 22.113857 108.50622 21.906322C108.68579 21.697535 108.82518 21.427488 108.92439 21.094931C109.02485 20.763622 109.07382 20.35355 109.07382 19.868465L109.07382 15.181398L107.86452 15.181398ZM113.94622 21.341223L112.3765 21.341223L112.3765 17.383032C112.3765 16.877945 112.4418 16.532885 112.57115 16.349102C112.70049 16.165319 112.92025 16.074055 113.22917 16.074055C113.40749 16.074055 113.56195 16.099058 113.69255 16.149067C113.8219 16.197826 113.91608 16.242834 113.97636 16.282841L114.14086 15.315172C114.09063 15.275165 113.97134 15.213904 113.78172 15.128889C113.59209 15.045125 113.33842 15.002617 113.01946 15.002617C112.40162 15.002617 111.93824 15.173897 111.62932 15.516457C111.3204 15.857766 111.16594 16.426615 111.16594 17.219254L111.16594 21.341223L110.29945 21.341223L110.29945 22.143864L111.16594 22.322645L111.30031 24.316742L112.3765 24.316742L112.3765 22.322645L114.09566 22.322645L113.94622 21.341223ZM123.58427 22.322645L121.40299 15.181398L120.3268 15.181398L119.59468 17.680584C119.48543 18.038147 119.3925 18.370705 119.31841 18.677008C119.24306 18.984562 119.1966 19.278362 119.17651 19.555912L119.14637 19.555912C119.12627 19.278362 119.07228 18.980812 118.98186 18.663256C118.8927 18.345701 118.78722 18.013142 118.66792 17.665583L117.84665 15.181398L116.81566 15.181398L114.55904 22.322645L115.85876 22.322645L116.93495 18.275688C117.03416 17.899372 117.12206 17.549311 117.19616 17.226755C117.2715 16.9042 117.31294 16.600395 117.32299 16.311596L117.35313 16.311596C117.38326 16.600395 117.4448 16.899199 117.54024 17.211752C117.63442 17.524307 117.74116 17.864367 117.86172 18.23068L118.63778 20.567339L118.10031 22.322645L119.35609 22.322645L120.44609 18.379456C120.5566 17.973135 120.65581 17.59182 120.74496 17.234257C120.83538 16.877945 120.88436 16.570391 120.8944 16.311596L120.92455 16.311596C120.94463 16.570391 120.99487 16.880445 121.07398 17.241758C121.15435 17.604321 121.24854 17.983137 121.35778 18.379456L122.41891 22.322645L123.58427 22.322645ZM125.91624 15.181398L124.70567 15.181398L124.70567 22.322645L125.91624 22.322645L125.91624 15.181398ZM125.31849 24.047945C125.06859 24.047945 124.87018 24.127958 124.72074 24.286737C124.5713 24.445515 124.49596 24.653051 124.49596 24.911846C124.49596 25.159389 124.5713 25.363174 124.72074 25.521952C124.87018 25.67948 125.06859 25.759493 125.31849 25.759493C125.55708 25.759493 125.75173 25.67948 125.90117 25.521952C126.05061 25.363174 126.12469 25.159389 126.12469 24.911846C126.12469 24.653051 126.05061 24.445515 125.90117 24.286737C125.75173 24.127958 125.55708 24.047945 125.31849 24.047945ZM131.75934 20.938652C131.7292 20.968658 131.68149 21.013666 131.61743 21.072426C131.55214 21.132437 131.47052 21.192448 131.37006 21.251207C131.27084 21.311218 131.15155 21.363728 131.01216 21.407484C130.87277 21.452492 130.71329 21.474997 130.53371 21.474997C130.27502 21.474997 130.03265 21.427488 129.80913 21.333721C129.58435 21.238705 129.38969 21.087429 129.22646 20.879892C129.06195 20.671106 128.9326 20.401058 128.83716 20.068501C128.74298 19.735943 128.69525 19.332123 128.69525 18.855789C128.69525 18.330698 128.73796 17.88937 128.8221 17.531809C128.90749 17.175497 129.02428 16.890446 129.17371 16.676659C129.32315 16.462872 129.50523 16.309095 129.71872 16.215328C129.93346 16.121563 130.16954 16.074055 130.42947 16.074055C130.79742 16.074055 131.07872 16.139065 131.27336 16.267838C131.468 16.39661 131.60487 16.500378 131.68399 16.580393L132.17751 15.746497C132.12729 15.687737 132.05571 15.615224 131.96027 15.53146C131.86609 15.446445 131.74428 15.36518 131.59483 15.285167C131.4454 15.206403 131.26331 15.138891 131.04857 15.085132C130.8351 15.030122 130.58771 15.002617 130.30893 15.002617C129.91084 15.002617 129.53789 15.067629 129.18878 15.196401C128.83968 15.325173 128.53578 15.53896 128.27708 15.836513C128.0184 16.134064 127.81371 16.520382 127.66427 16.996716C127.51483 17.473049 127.44074 18.06315 127.44074 18.767023C127.44074 19.450893 127.5299 20.030994 127.70948 20.507328C127.88905 20.98366 128.12262 21.367477 128.41145 21.66128C128.70029 21.953831 129.02176 22.166367 129.37589 22.30014C129.72876 22.433914 130.0854 22.501425 130.4433 22.501425C130.71329 22.501425 130.94937 22.476421 131.15405 22.426413C131.3575 22.377653 131.53204 22.315144 131.67645 22.241381C131.82088 22.166367 131.94017 22.087603 132.03561 22.002588C132.12979 21.918823 132.20766 21.846312 132.26668 21.78755L131.75934 20.938652ZM136.24245 19.049574L138.70752 15.181398L137.25836 15.181398L135.24034 18.514481L134.74808 18.514481L134.74808 15.181398L133.53752 15.181398L133.53752 25.699484L134.74808 25.833256L134.74808 19.540909L135.25542 19.540909L137.18301 22.322645L138.61836 22.322645L136.24245 19.049574ZM140.97922 16.847939C140.97922 16.550386 141.02191 16.3416 141.10605 16.22283C141.19144 16.104059 141.33836 16.044048 141.54683 16.044048C141.65608 16.044048 141.74901 16.05405 141.82309 16.074055C141.89844 16.094057 141.95496 16.114061 141.99513 16.134064L142.09937 15.241409C142.04034 15.211404 141.93109 15.171396 141.77161 15.121388C141.61212 15.07263 141.39738 15.047626 141.12865 15.047626C140.72054 15.047626 140.39151 15.171396 140.14287 15.41894C139.89297 15.667733 139.76865 16.10906 139.76865 16.74292L139.76865 25.699484L140.97922 25.833256L140.97922 16.847939ZM148.21121 15.181398L147.10612 15.181398L147.10612 15.985289L147.07599 15.985289C147.04585 15.925279 146.98181 15.839013 146.88135 15.723993C146.78214 15.610223 146.6553 15.501454 146.50084 15.397686C146.34639 15.292667 146.15927 15.201402 145.94077 15.121388C145.72101 15.042624 145.47739 15.002617 145.20866 15.002617C144.88969 15.002617 144.60338 15.050125 144.34845 15.143892C144.09479 15.238909 143.8788 15.390184 143.69922 15.597721C143.51964 15.806507 143.38277 16.076555 143.28857 16.409113C143.19315 16.741671 143.14542 17.150492 143.14542 17.636827L143.14542 22.322645L144.35599 22.322645L144.35599 17.725592C144.35599 17.130489 144.45393 16.706665 144.64732 16.452869C144.84196 16.200327 145.14336 16.074055 145.55148 16.074055C145.90059 16.074055 146.19444 16.160318 146.43303 16.334099C146.67288 16.507879 146.8625 16.679159 147.00189 16.847939L147.00189 22.322645L148.21121 22.322645L148.21121 15.181398ZM153.98022 15.181398L153.98022 19.77845C153.98022 20.383556 153.87851 20.817381 153.67381 21.079927C153.46912 21.343723 153.1577 21.474997 152.73952 21.474997C152.38162 21.474997 152.08275 21.384981 151.8429 21.207449C151.60431 21.028669 151.41469 20.854889 151.27528 20.68611L151.27528 15.181398L150.06473 15.181398L150.06473 22.322645L151.17107 22.322645L151.17107 21.518753L151.2012 21.518753C151.23009 21.578764 151.29538 21.66503 151.39459 21.78005C151.49506 21.89382 151.62439 22.002588 151.78387 22.107607C151.94336 22.211374 152.13173 22.302641 152.35149 22.382654C152.56999 22.461418 152.81989 22.501425 153.09866 22.501425C153.41763 22.501425 153.70647 22.453917 153.96515 22.360151C154.22385 22.265135 154.4436 22.113857 154.62318 21.906322C154.8015 21.697535 154.94214 21.427488 155.04135 21.094931C155.14055 20.763622 155.19078 20.35355 155.19078 19.868465L155.19078 15.181398L153.98022 15.181398ZM162.13898 21.384981L161.24236 21.384981C161.47215 21.008665 161.58643 20.58234 161.58643 20.106007C161.58643 19.728441 161.52364 19.389633 161.39932 19.08708C161.27499 18.784527 161.10045 18.528233 160.87692 18.320696C160.65215 18.11191 160.38843 17.953133 160.08453 17.844362C159.78064 17.735594 159.45413 17.680584 159.10628 17.680584L158.91164 17.680584C158.85136 17.680584 158.78732 17.685585 158.717 17.695587C158.5977 17.645578 158.47337 17.566814 158.34402 17.458046C158.21469 17.348026 158.14938 17.204252 158.14938 17.02672C158.14938 16.877945 158.20715 16.755423 158.32143 16.661657C158.4357 16.56789 158.62282 16.520382 158.8815 16.520382L159.79318 16.520382C160.13225 16.520382 160.4462 16.485376 160.73502 16.416615C161.02385 16.346601 161.27499 16.235332 161.48973 16.081556C161.70322 15.927778 161.87024 15.731494 161.98953 15.493953C162.11009 15.256412 162.16911 14.967611 162.16911 14.631303C162.16911 14.243735 162.08748 13.892424 161.92297 13.574868C161.75847 13.257313 161.52615 12.984765 161.22728 12.755976C160.92841 12.528436 160.56549 12.349654 160.13727 12.220882C159.70906 12.09211 159.23061 12.027098 158.70192 12.027098C157.93465 12.027098 157.35197 12.193377 156.95389 12.525935C156.55582 12.858493 156.35614 13.336077 156.35614 13.961185C156.35614 14.228732 156.40385 14.460023 156.49805 14.653807C156.59222 14.84634 156.70525 15.01512 156.83459 15.158895C156.96394 15.30267 157.09579 15.416439 157.23016 15.501454C157.36453 15.585218 157.47252 15.652731 157.55164 15.70274L157.55164 15.731494C157.24272 15.960284 157.08826 16.292843 157.08826 16.729168C157.08826 16.9167 157.12593 17.080481 157.20003 17.219254C157.27536 17.358028 157.3595 17.473049 157.45494 17.561813C157.54913 17.650579 157.64331 17.723091 157.73875 17.778101C157.83293 17.831861 157.90576 17.869368 157.95474 17.88937L157.95474 17.919376C157.58679 18.088156 157.29044 18.353201 157.06566 18.714516C156.84213 19.077078 156.73036 19.540909 156.73036 20.106007C156.73036 20.502327 156.7944 20.852388 156.92375 21.15494C157.0531 21.457493 157.22765 21.707537 157.4474 21.906322C157.66591 22.105106 157.92334 22.252632 158.21719 22.35265C158.51105 22.451416 158.8275 22.501425 159.1653 22.501425C159.50436 22.501425 159.82333 22.441416 160.12221 22.322645L162.30348 22.322645L162.13898 21.384981ZM158.8074 15.405188C158.5977 15.405188 158.4131 15.41894 158.25362 15.448945C158.16446 15.400187 158.0778 15.340177 157.99242 15.270164C157.90828 15.201402 157.83041 15.116387 157.76135 15.01762C157.69102 14.918853 157.63452 14.802583 157.58931 14.667559C157.5441 14.533786 157.5215 14.377508 157.5215 14.199977C157.5215 13.436094 157.94469 13.053527 158.79234 13.053527C159.51942 13.053527 160.0569 13.194802 160.40601 13.477351C160.75511 13.76115 160.92841 14.084957 160.92841 14.452521C160.92841 14.800082 160.81915 15.045125 160.60065 15.1889C160.38089 15.332675 160.08704 15.405188 159.7191 15.405188L158.8074 15.405188ZM160.40601 20.106007C160.40601 20.621098 160.28419 20.988661 160.03932 21.207449C159.7957 21.424988 159.50938 21.533756 159.18037 21.533756C158.83127 21.533756 158.53239 21.424988 158.28375 21.207449C158.03511 20.988661 157.91078 20.621098 157.91078 20.106007C157.91078 19.589668 158.03511 19.223354 158.28375 19.004566C158.53239 18.787027 158.82248 18.677008 159.15024 18.677008C159.49934 18.677008 159.7957 18.787027 160.03932 19.004566C160.28419 19.223354 160.40601 19.589668 160.40601 20.106007ZM5.5442324 0.17878118L4.4391532 0.17878118L4.4391532 0.98267144L4.4090147 0.98267144C4.3788762 0.92266095 4.3135762 0.83639592 4.2143703 0.72137582C4.1151643 0.60760599 3.9883311 0.49883702 3.8338711 0.39506891C3.6794112 0.2900506 3.4923012 0.19878468 3.2725413 0.11877072C3.0540369 0.04000698 2.8091614 0 2.5404263 0C2.2214603 0 1.9351443 0.047508288 1.6814784 0.14127465C1.4278125 0.23629121 1.210564 0.38756761 1.0309886 0.5951038C0.852669 0.80389023 0.71578991 1.0739373 0.62035125 1.4064953C0.52616835 1.7390534 0.47844905 2.1478746 0.47844905 2.6342096L0.47844905 7.3200269L1.689013 7.3200269L1.689013 2.722975C1.689013 2.1278713 1.7857075 1.7040473 1.980352 1.450253C2.1749966 1.197709 2.476382 1.0714369 2.8845077 1.0714369C3.2336123 1.0714369 3.527463 1.157702 3.7660596 1.3314823C4.0046563 1.5052626 4.1942778 1.6765425 4.3336682 1.8453219L4.3336682 7.3200269L5.5442324 7.3200269L5.5442324 0.17878118ZM11.313248 0.17878118L11.313248 4.7758331C11.313248 5.3809385 11.210275 5.8147645 11.00684 6.0773101C10.802149 6.3411064 10.490717 6.4723792 10.072545 6.4723792C9.7133942 6.4723792 9.4145212 6.3823633 9.1759243 6.2048326C8.9373274 6.026051 8.7477064 5.8522711 8.6083155 5.6834917L8.6083155 0.17878118L7.3977513 0.17878118L7.3977513 7.3200269L8.5028305 7.3200269L8.5028305 6.5161366L8.5329695 6.5161366C8.5631075 6.5761471 8.6284075 6.6624122 8.7276134 6.7774324C8.8268194 6.891202 8.9561644 6.9999714 9.1156473 7.1037393C9.2751303 7.2087574 9.4647522 7.3000236 9.6845121 7.3800373C9.9030161 7.4588013 10.151659 7.4988084 10.431696 7.4988084C10.749406 7.4988084 11.038234 7.4512997 11.298179 7.3575335C11.556868 7.262517 11.776628 7.1112404 11.954947 6.9037042C12.134522 6.6949182 12.273913 6.424871 12.374375 6.0923128C12.473581 5.7610049 12.523812 5.3509336 12.523812 4.865849L12.523812 0.17878118L11.313248 0.17878118ZM14.003111 3.6456361C14.003111 4.3695121 14.097294 4.974618 14.286916 5.4609528C14.475281 5.9460373 14.720157 6.3386059 15.019031 6.6361575C15.317904 6.9337096 15.656962 7.1437464 16.03495 7.267518C16.412937 7.3925395 16.792181 7.4538002 17.170168 7.4538002C17.399973 7.4538002 17.599642 7.4362974 17.767914 7.4012914C17.937445 7.3675351 18.076834 7.3250279 18.187342 7.2750192L18.187342 10.696866L19.397907 10.83064L19.397907 0.17878118L18.291571 0.17878118L18.291571 0.93766356L18.261433 0.93766356C18.231295 0.87765312 18.177296 0.79638892 18.096928 0.69262081C18.017813 0.5876025 17.908562 0.48383442 17.767914 0.38006631C17.628525 0.27504799 17.455227 0.1862825 17.245514 0.11126941C17.035799 0.037506543 16.792181 0 16.513399 0C16.174341 0 15.852862 0.067511775 15.548966 0.20128511C15.24507 0.33505845 14.978846 0.5475955 14.750296 0.84139681C14.520489 1.1339478 14.338402 1.5102634 14.204035 1.971594C14.069667 2.4329245 14.003111 2.9905217 14.003111 3.6456361ZM16.842411 1.0714369C17.030777 1.0714369 17.200306 1.0964413 17.349743 1.14645C17.49918 1.1952085 17.628525 1.2577194 17.739033 1.3314823C17.848284 1.4064953 17.939955 1.4827586 18.015303 1.5627726C18.089392 1.6415364 18.147158 1.7115486 18.187342 1.7703089L18.187342 6.1748271C18.076834 6.2435894 17.950001 6.3035998 17.805588 6.3536086C17.661175 6.4023671 17.479088 6.4273715 17.260584 6.4273715C16.981802 6.4273715 16.719345 6.3798628 16.475725 6.2860966C16.232105 6.1923304 16.01988 6.0360532 15.840305 5.817265C15.661985 5.5997267 15.520083 5.3159275 15.414598 4.9696169C15.310369 4.6220565 15.257627 4.1957321 15.257627 3.6893935C15.257627 3.1943073 15.300323 2.7804852 15.384459 2.447927C15.469852 2.1153691 15.586639 1.8478223 15.736076 1.6440368C15.885513 1.4415015 16.055042 1.295226 16.244663 1.2052102C16.433029 1.1164447 16.632696 1.0714369 16.842411 1.0714369ZM30.082012 7.8263655C30.082012 7.4688029 30.036804 7.1562486 29.947645 6.8887019C29.858486 6.6211553 29.73542 6.3898649 29.580959 6.197331C29.4265 6.0035472 29.24818 5.84727 29.043489 5.7284994C28.838799 5.6097288 28.627829 5.5197129 28.40807 5.4609528L28.40807 5.4309473C28.676804 5.3809385 28.929214 5.2871723 29.162788 5.1483979C29.397617 5.009624 29.601051 4.8358436 29.775604 4.6270571C29.950157 4.4195209 30.089548 4.1732283 30.193777 3.8906786C30.299261 3.6081295 30.350748 3.2980754 30.350748 2.9605165C30.350748 2.5541956 30.281681 2.1828809 30.14229 1.8453219C30.002899 1.507763 29.78565 1.215212 29.4918 0.96766883C29.197948 0.71887541 28.826241 0.5263418 28.37793 0.38756761C27.929621 0.24879341 27.397173 0.17878118 26.779333 0.17878118L24.672148 0.17878118L24.672148 10.444322L26.660034 10.444322C27.267828 10.444322 27.787718 10.381811 28.222214 10.258039C28.655457 10.134268 29.010839 9.9579868 29.289621 9.7304478C29.568401 9.5016575 29.770582 9.2266092 29.894903 8.9040537C30.019224 8.5827475 30.082012 8.2226849 30.082012 7.8263655ZM28.76722 7.7813573C28.76722 8.2576904 28.597691 8.6490088 28.258633 8.956562C27.92083 9.2641163 27.387127 9.4178934 26.660034 9.4178934L25.973127 9.4178934L25.973127 5.8772755L26.644966 5.8772755C27.341919 5.8772755 27.870598 6.0460548 28.228493 6.3823633C28.587645 6.7199225 28.76722 7.1862535 28.76722 7.7813573ZM28.961864 3.0505321C28.961864 3.605629 28.779778 4.0444555 28.415604 4.367012C28.052685 4.689568 27.53154 4.8508463 26.854679 4.8508463L25.973127 4.8508463L25.973127 1.2502182L26.779333 1.2502182C27.54661 1.2502182 28.10166 1.4014945 28.445742 1.7040473C28.789824 2.0066001 28.961864 2.4554284 28.961864 3.0505321ZM31.531174 1.9940978C31.531174 2.4104204 31.611542 2.7579811 31.771027 3.0355296C31.93051 3.3130779 32.14399 3.5381172 32.412724 3.7118976C32.682716 3.8856778 32.999172 4.0094495 33.362087 4.0844626C33.726261 4.1582255 34.111786 4.1957321 34.519909 4.1957321L34.894131 4.1957321L34.894131 4.8796015C34.894131 5.4847069 34.786133 5.9022799 34.572651 6.1298194C34.357914 6.3586092 34.05653 6.4723792 33.668495 6.4723792C33.309345 6.4723792 33.010471 6.3948655 32.771877 6.2410889C32.533279 6.0873117 32.343658 5.9510384 32.204266 5.8322673L31.695679 6.6361575C31.776049 6.7149215 31.877766 6.8049374 32.002087 6.9037042C32.126408 7.0024714 32.278358 7.0962381 32.457932 7.1862535C32.637508 7.2750192 32.842197 7.3500323 33.070751 7.4087925C33.300556 7.4688029 33.559246 7.4988084 33.848072 7.4988084C34.585209 7.4988084 35.142773 7.2950225 35.522015 6.8887019C35.900002 6.4823809 36.089626 5.8272667 36.089626 4.9246092L36.089626 1.6665407C36.089626 1.3589871 36.09967 1.0589347 36.119762 0.76638371C36.139854 0.47383267 36.158691 0.27754843 36.178783 0.17878118L35.028496 0.17878118L34.983292 0.96766883L34.953152 0.96766883C34.914223 0.87765312 34.853947 0.77638543 34.77483 0.6626156C34.694462 0.5475955 34.595257 0.44382742 34.47596 0.35006106C34.355404 0.2562947 34.210991 0.17378032 34.042717 0.10501832C33.873188 0.035006106 33.673519 0 33.444969 0C33.17498 0 32.923824 0.050008725 32.69025 0.14877595C32.455421 0.24879341 32.251987 0.38756761 32.077435 0.56509858C31.902882 0.7438798 31.768515 0.95516664 31.673075 1.197709C31.578892 1.4415015 31.531174 1.7065477 31.531174 1.9940978ZM33.698635 1.0264291C33.868164 1.0264291 34.017601 1.0514334 34.146946 1.1014421C34.276291 1.1514509 34.388054 1.2102112 34.483494 1.2802234C34.577675 1.3489853 34.656788 1.4264989 34.722088 1.5102634C34.786133 1.5952783 34.843899 1.6665407 34.894131 1.7265512L34.894131 3.3030763L34.504841 3.2880735C33.927185 3.2680702 33.488922 3.1693029 33.190048 2.9905217C32.891174 2.8117404 32.741737 2.5241904 32.741737 2.1278713C32.741737 1.7603071 32.827129 1.4852591 32.996658 1.3027272C33.164932 1.1189452 33.399761 1.0264291 33.698635 1.0264291ZM42.933582 0.17878118L41.827248 0.17878118L41.827248 0.98267144L41.798363 0.98267144C41.768227 0.92266095 41.702923 0.83639592 41.603718 0.72137582C41.504513 0.60760599 41.376423 0.49883702 41.221966 0.39506891C41.06876 0.2900506 40.881649 0.19878468 40.661888 0.11877072C40.443386 0.04000698 40.198509 0 39.929775 0C39.610809 0 39.324493 0.047508288 39.070827 0.14127465C38.817162 0.23629121 38.599911 0.38756761 38.420338 0.5951038C38.240761 0.80389023 38.103882 1.0739373 38.009701 1.4064953C37.915516 1.7390534 37.867798 2.1478746 37.867798 2.6342096L37.867798 7.3200269L39.078362 7.3200269L39.078362 2.722975C39.078362 2.1278713 39.175056 1.7040473 39.369701 1.450253C39.564346 1.197709 39.86573 1.0714369 40.273857 1.0714369C40.622959 1.0714369 40.915554 1.157702 41.155407 1.3314823C41.394005 1.5052626 41.583626 1.6765425 41.723019 1.8453219L41.723019 7.3200269L42.933582 7.3200269L42.933582 0.17878118ZM53.050079 7.3200269L50.868801 0.17878118L49.792606 0.17878118L49.06049 2.6779671C48.951241 3.0355296 48.858311 3.3680875 48.784222 3.6756413C48.708874 3.9819446 48.662411 4.2757459 48.642319 4.5532942L48.612183 4.5532942C48.592087 4.2757459 48.53809 3.978194 48.447674 3.6606386C48.358517 3.3430831 48.253029 3.0105252 48.133732 2.6629646L47.312458 0.17878118L46.281467 0.17878118L44.024845 7.3200269L45.32457 7.3200269L46.400768 3.2730711C46.499973 2.8967555 46.587875 2.5466943 46.661968 2.224138C46.737312 1.9015818 46.778755 1.5977787 46.788799 1.3089783L46.818939 1.3089783C46.849079 1.5977787 46.91061 1.8978311 47.00605 2.2091353C47.100231 2.5216899 47.206974 2.8617492 47.327526 3.2293134L48.103592 5.5647206L47.566124 7.3200269L48.821896 7.3200269L49.911903 3.3780894C50.022411 2.9705181 50.12162 2.5892017 50.210777 2.2316394C50.301193 1.8753271 50.35017 1.5677735 50.360214 1.3089783L50.390354 1.3089783C50.410446 1.5677735 50.460678 1.8778276 50.539791 2.2391405C50.620159 2.6017039 50.714344 2.98052 50.823593 3.3780894L51.884724 7.3200269L53.050079 7.3200269ZM58.669659 4.9096065C58.669659 4.6020527 58.659611 4.3370066 58.639519 4.1144676C58.619427 3.8906786 58.599335 3.6943946 58.579243 3.5268652L54.918667 3.5268652C54.958851 2.6829681 55.139683 2.0628598 55.463673 1.6665407C55.787663 1.2702216 56.253551 1.0714369 56.861347 1.0714369C57.069805 1.0714369 57.259426 1.0964413 57.428955 1.14645C57.598484 1.1952085 57.745407 1.255219 57.869732 1.3239809C57.994053 1.3939931 58.099537 1.4627552 58.183674 1.5327674C58.267811 1.6015294 58.330597 1.656539 58.370785 1.696546L58.819096 0.84889811C58.768864 0.79888934 58.694771 0.72637671 58.594311 0.63261038C58.495106 0.53884399 58.360737 0.44382742 58.191208 0.35006106C58.021679 0.2562947 57.811966 0.17378032 57.56332 0.10501832C57.314678 0.035006106 57.020828 0 56.68177 0C56.233459 0 55.827847 0.075013086 55.463673 0.22378904C55.100754 0.372565 54.791832 0.6026051 54.536911 0.91515964C54.283245 1.2277142 54.08609 1.6240333 53.946701 2.1053672C53.807308 2.5867012 53.738243 3.1643021 53.738243 3.8381696C53.738243 4.4732804 53.809822 5.0221262 53.954235 5.4822063C54.098648 5.9435368 54.295803 6.3236032 54.544445 6.6211553C54.794346 6.9187069 55.083172 7.1387453 55.412186 7.2825203C55.739941 7.4262958 56.09407 7.4988084 56.472057 7.4988084C57.160221 7.4988084 57.697689 7.2825203 58.086979 6.8511953C58.475014 6.4198699 58.669659 5.7722569 58.669659 4.9096065ZM56.397964 6.5161366C55.969749 6.5161366 55.625668 6.3386059 55.366978 5.9810433C55.108288 5.6234808 54.958851 5.1083913 54.918667 4.4332733L57.533184 4.4332733C57.543228 4.4832821 57.550766 4.5557947 57.555786 4.6495609C57.56081 4.7433276 57.56332 4.8458452 57.56332 4.9546142C57.56332 5.4509511 57.464115 5.8347678 57.26445 6.1073155C57.064781 6.3798628 56.775951 6.5161366 56.397964 6.5161366ZM63.376289 5.8772755C63.297176 5.9660406 63.152763 6.0873117 62.943047 6.2410889C62.734589 6.3948655 62.459576 6.4723792 62.121773 6.4723792C61.802807 6.4723792 61.557934 6.397366 61.38966 6.24859C61.220131 6.0998139 61.134735 5.9210329 61.134735 5.7134967C61.134735 5.44595 61.212593 5.2246614 61.367054 5.0508809C61.521515 4.8771009 61.757599 4.6920686 62.076565 4.4932837L62.524876 4.2257371C63.013371 3.9381871 63.396381 3.6281328 63.675163 3.2955749C63.953945 2.963017 64.093338 2.5341921 64.093338 2.0091004C64.093338 1.4440019 63.897434 0.96766883 63.503124 0.58010119C63.110065 0.1937838 62.544968 0 61.807831 0C61.519005 0 61.26408 0.030005235 61.045578 0.090015702C60.825817 0.14877595 60.634941 0.21878816 60.470432 0.2975519C60.305927 0.37756586 60.169048 0.46383092 60.05854 0.55759728C59.949287 0.65261388 59.86013 0.73887891 59.789806 0.81889284L60.372482 1.7703089C60.432762 1.7115486 60.504341 1.6415364 60.589733 1.5627726C60.67387 1.4827586 60.77684 1.4064953 60.896141 1.3314823C61.015438 1.2577194 61.149807 1.1952085 61.299244 1.14645C61.448681 1.0964413 61.623234 1.0714369 61.822899 1.0714369C62.180794 1.0714369 62.454552 1.1514509 62.644173 1.3089783C62.833797 1.467756 62.927979 1.6615399 62.927979 1.8890796C62.927979 2.0578589 62.905376 2.2041345 62.861423 2.3291564C62.816216 2.4529278 62.748405 2.5641973 62.659245 2.6629646C62.570084 2.7629819 62.459576 2.8567483 62.330231 2.945514C62.200886 3.0355296 62.051449 3.1342969 61.88192 3.2430658L61.433609 3.5268652C60.985302 3.8144155 60.634941 4.1169682 60.380016 4.4332733C60.12635 4.7508287 59.999519 5.1584001 59.999519 5.6534863C59.999519 5.9210329 60.051006 6.167326 60.15649 6.3898649C60.260719 6.6136537 60.407646 6.8061872 60.597267 6.9699659C60.786888 7.1337447 61.007904 7.262517 61.26157 7.3575335C61.516491 7.4512997 61.787739 7.4988084 62.076565 7.4988084C62.355347 7.4988084 62.593945 7.4713035 62.79361 7.4162936C62.993279 7.3625345 63.165321 7.2925224 63.309734 7.2087574C63.454147 7.1237426 63.573444 7.039978 63.667629 6.9549632C63.763065 6.8711987 63.839668 6.798686 63.899948 6.7399259L63.376289 5.8772755ZM70.11602 4.9096065C70.11602 4.6020527 70.105972 4.3370066 70.085876 4.1144676C70.065788 3.8906786 70.046951 3.6943946 70.026855 3.5268652L66.365028 3.5268652C66.405212 2.6829681 66.587296 2.0628598 66.911285 1.6665407C67.234024 1.2702216 67.699913 1.0714369 68.307709 1.0714369C68.517418 1.0714369 68.707039 1.0964413 68.875313 1.14645C69.044846 1.1952085 69.191765 1.255219 69.316093 1.3239809C69.441666 1.3939931 69.545898 1.4627552 69.630035 1.5327674C69.715424 1.6015294 69.776955 1.656539 69.817146 1.696546L70.265457 0.84889811C70.215225 0.79888934 70.141129 0.72637671 70.041924 0.63261038C69.941467 0.53884399 69.807098 0.44382742 69.637566 0.35006106C69.46804 0.2562947 69.259583 0.17378032 69.009682 0.10501832C68.76104 0.035006106 68.467186 0 68.128128 0C67.679817 0 67.274208 0.075013086 66.911285 0.22378904C66.547112 0.372565 66.23819 0.6026051 65.984528 0.91515964C65.730858 1.2277142 65.533707 1.6240333 65.394318 2.1053672C65.254921 2.5867012 65.184601 3.1643021 65.184601 3.8381696C65.184601 4.4732804 65.257439 5.0221262 65.401848 5.4822063C65.546265 5.9435368 65.742165 6.3236032 65.992065 6.6211553C66.240707 6.9187069 66.529533 7.1387453 66.858543 7.2825203C67.187553 7.4262958 67.540428 7.4988084 67.91967 7.4988084C68.606583 7.4988084 69.145302 7.2825203 69.53334 6.8511953C69.921371 6.4198699 70.11602 5.7722569 70.11602 4.9096065ZM67.844322 6.5161366C67.416107 6.5161366 67.07328 6.3386059 66.813339 5.9810433C66.554649 5.6234808 66.405212 5.1083913 66.365028 4.4332733L68.980797 4.4332733C68.990845 4.4832821 68.998383 4.5557947 69.003403 4.6495609C69.008423 4.7433276 69.009682 4.8458452 69.009682 4.9546142C69.009682 5.4509511 68.910477 5.8347678 68.710808 6.1073155C68.512398 6.3798628 68.223572 6.5161366 67.844322 6.5161366ZM75.64518 0.17878118L75.64518 4.7758331C75.64518 5.3809385 75.543465 5.8147645 75.338768 6.0773101C75.135338 6.3411064 74.823906 6.4723792 74.40448 6.4723792C74.046585 6.4723792 73.747711 6.3823633 73.507858 6.2048326C73.269257 6.026051 73.079636 5.8522711 72.940247 5.6834917L72.940247 0.17878118L71.729683 0.17878118L71.729683 7.3200269L72.836021 7.3200269L72.836021 6.5161366L72.866158 6.5161366C72.896294 6.5761471 72.960342 6.6624122 73.059547 6.7774324C73.160004 6.891202 73.289352 6.9999714 73.448837 7.1037393C73.608315 7.2087574 73.797943 7.3000236 74.016441 7.3800373C74.234947 7.4588013 74.484848 7.4988084 74.763626 7.4988084C75.082596 7.4988084 75.371422 7.4512997 75.630112 7.3575335C75.890053 7.262517 76.108559 7.1112404 76.288132 6.9037042C76.467712 6.6949182 76.607101 6.424871 76.706306 6.0923128C76.805511 5.7610049 76.855743 5.3509336 76.855743 4.865849L76.855743 0.17878118L75.64518 0.17878118Z" fill-rule="evenodd"></path>
</svg>