<svg viewBox="0 0 100 100" width="32" height="32" xmlns="http://www.w3.org/2000/svg" role="img" aria-label="SpatialTimber logomark"><title>SpatialTimber</title><polygon points="50,49 75,61 50,73 25,61" fill="#FBFAF6"></polygon><polygon points="25,61 50,73 50,79 25,67" fill="#D9D4C8"></polygon><polygon points="50,73 75,61 75,67 50,79" fill="#ECE8DD"></polygon><path d="M 25 61 L 50 73 M 75 61 L 50 73 M 50 73 L 50 79" fill="none" stroke="#141413" stroke-width="1" stroke-linecap="round" stroke-linejoin="round"></path><path d="M 50 49 L 75 61 L 75 67 L 50 79 L 25 67 L 25 61 Z" fill="none" stroke="#141413" stroke-width="3.8" stroke-linejoin="round" stroke-linecap="round"></path><polygon points="50,35 75,47 50,59 25,47" fill="#FBFAF6"></polygon><polygon points="25,47 50,59 50,65 25,53" fill="#D9D4C8"></polygon><polygon points="50,59 75,47 75,53 50,65" fill="#ECE8DD"></polygon><path d="M 25 47 L 50 59 M 75 47 L 50 59 M 50 59 L 50 65" fill="none" stroke="#141413" stroke-width="1" stroke-linecap="round" stroke-linejoin="round"></path><path d="M 50 35 L 75 47 L 75 53 L 50 65 L 25 53 L 25 47 Z" fill="none" stroke="#141413" stroke-width="3.8" stroke-linejoin="round" stroke-linecap="round"></path><g class="st-topplate"><polygon points="50,21 75,33 50,45 25,33" fill="#D97757"></polygon><polygon points="25,33 50,45 50,51 25,39" fill="#B85A3C"></polygon><polygon points="50,45 75,33 75,39 50,51" fill="#CC6A49"></polygon><path d="M 25 33 L 50 45 M 75 33 L 50 45 M 50 45 L 50 51" fill="none" stroke="#141413" stroke-width="1" stroke-linecap="round" stroke-linejoin="round"></path><path d="M 50 21 L 75 33 L 75 39 L 50 51 L 25 39 L 25 33 Z" fill="none" stroke="#141413" stroke-width="3.8" stroke-linejoin="round" stroke-linecap="round"></path></g></svg>